<svg width="20" height="20" fill="none" xmlns="http://www.w3.org/2000/svg"><path fill-rule="evenodd" clip-rule="evenodd" d="M.034 12.655a.994.994 0 00.465.607l1.91 1.104v2.2a1 1 0 001 1h2.2l1.103 1.91a1.007 1.007 0 00.866.5 1 1 0 00.501-.135l1.908-1.104 1.91 1.104a1.001 1.001 0 001.366-.366l1.103-1.909h2.2a1 1 0 001-1v-2.199l1.91-1.104a1 1 0 00.364-1.366l-1.104-1.909L19.84 8.08a1 1 0 00-.365-1.366l-1.91-1.104v-2.2a1 1 0 00-1-1h-2.199L13.263.501a1.004 1.004 0 00-.607-.466.993.993 0 00-.759.1L9.987 1.24 8.078.135A.998.998 0 006.712.5L5.608 2.41H3.41a1 1 0 00-1 1v2.2L.5 6.712A.998.998 0 00.134 8.08l1.104 1.908-1.104 1.908a.997.997 0 00-.1.76zm3.224-3.168l-.892-1.543 1.544-.893a1 1 0 00.5-.866V4.41h1.775c.357 0 .688-.19.866-.5l.892-1.543 1.544.892a.998.998 0 001 0l1.545-.892.891 1.543a1 1 0 00.866.5h1.776v1.776a1 1 0 00.5.866l1.543.893-.893 1.543a1 1 0 000 1.001l.893 1.543-1.544.893a1 1 0 00-.499.866v1.776H13.79a.998.998 0 00-.866.5l-.89 1.543-1.546-.893a1 1 0 00-1 0l-1.544.893-.892-1.543a1.002 1.002 0 00-.866-.5H4.41v-1.776a1 1 0 00-.499-.866l-1.544-.893.893-1.543a1 1 0 000-1.002z" fill="url(#paint0_linear)"/><defs><linearGradient id="paint0_linear" x1="0" y1="0" x2="0" y2="19.975" gradientUnits="userSpaceOnUse"><stop stop-color="#0A72A8"/><stop offset="1" stop-color="#1A4540"/></linearGradient></defs></svg>