<svg width="17" height="17" fill="none" xmlns="http://www.w3.org/2000/svg"><path fill-rule="evenodd" clip-rule="evenodd" d="M15.585 3.482a4.041 4.041 0 00-2.34-2.278A6.013 6.013 0 0011.3.841C10.445.804 10.174.794 8.003.794c-2.17 0-2.448 0-3.297.047a5.965 5.965 0 00-1.942.363 4.036 4.036 0 00-2.34 2.278A5.567 5.567 0 00.05 5.374C.012 6.207 0 6.471 0 8.585s0 2.383.05 3.211c.014.648.14 1.286.373 1.893a4.046 4.046 0 002.341 2.278 5.988 5.988 0 001.942.39c.856.036 1.128.047 3.298.047s2.45 0 3.298-.048a6.018 6.018 0 001.943-.362 4.048 4.048 0 002.34-2.279c.234-.606.36-1.245.373-1.892.038-.833.05-1.097.05-3.211s0-2.383-.05-3.211a5.563 5.563 0 00-.374-1.919zm-1.083 8.25a4.265 4.265 0 01-.276 1.461 2.621 2.621 0 01-1.522 1.48 4.535 4.535 0 01-1.485.27c-.844.038-1.082.048-3.248.048-2.167 0-2.388 0-3.248-.048a4.514 4.514 0 01-1.484-.27 2.62 2.62 0 01-1.528-1.48 4.295 4.295 0 01-.276-1.444c-.039-.823-.048-1.055-.048-3.163 0-2.11 0-2.325.048-3.163.006-.499.098-.992.276-1.46A2.62 2.62 0 013.239 2.48a4.56 4.56 0 011.484-.27c.845-.037 1.082-.047 3.248-.047 2.167 0 2.389 0 3.248.048a4.515 4.515 0 011.485.269c.699.262 1.25.8 1.522 1.482.174.462.268.95.276 1.444.038.823.048 1.054.048 3.163s0 2.335-.038 3.163h-.01zM13.23 4.431a.946.946 0 01-.958.933.946.946 0 01-.958-.933c0-.516.429-.933.958-.933.53 0 .958.417.958.933zM3.89 8.579c0-2.21 1.839-4.001 4.109-4.001 2.269 0 4.11 1.791 4.11 4.001 0 2.21-1.841 4.002-4.11 4.002-2.27 0-4.11-1.791-4.11-4.002zm1.439.001c0 1.435 1.195 2.599 2.67 2.599 1.475 0 2.669-1.164 2.669-2.599 0-1.436-1.194-2.6-2.669-2.6s-2.67 1.164-2.67 2.6z" fill="#D1A643"/></svg>