<svg width="20" height="19" fill="none" xmlns="http://www.w3.org/2000/svg"><path fill-rule="evenodd" clip-rule="evenodd" d="M18 5h-4V2c0-1.103-.897-2-2-2H8C6.897 0 6 .897 6 2v5H2C.897 7 0 7.897 0 9v9a1 1 0 001 1h18a1 1 0 001-1V7c0-1.103-.897-2-2-2zM2 9h4v8H2V9zm6-1V2h4v15H8V8zm10 9h-4V7h4v10z" fill="url(#paint0_linear)"/><defs><linearGradient id="paint0_linear" x1="0" y1="0" x2="0" y2="19" gradientUnits="userSpaceOnUse"><stop stop-color="#0A72A8"/><stop offset="1" stop-color="#1A4540"/></linearGradient></defs></svg>