<svg width="16" height="13" fill="none" xmlns="http://www.w3.org/2000/svg"><path d="M14.356 3.228c.01.142.01.283.01.424 0 4.32-3.299 9.3-9.33 9.3A9.289 9.289 0 010 11.484c.264.03.518.04.792.04a6.584 6.584 0 004.072-1.396 3.285 3.285 0 01-3.067-2.266c.203.03.406.05.62.05.293 0 .589-.04.863-.111A3.27 3.27 0 01.65 4.593v-.04c.438.242.945.394 1.482.414A3.26 3.26 0 011.116.597a9.338 9.338 0 006.763 3.42 3.702 3.702 0 01-.082-.749A3.272 3.272 0 0111.077 0c.944 0 1.797.394 2.396 1.032a6.491 6.491 0 002.08-.79 3.264 3.264 0 01-1.441 1.802A6.59 6.59 0 0016 1.538a7.027 7.027 0 01-1.644 1.69z" fill="#D1A643"/></svg>