<svg width="28" height="23" fill="none" xmlns="http://www.w3.org/2000/svg"><path fill-rule="evenodd" clip-rule="evenodd" d="M25.2 18.2a1.4 1.4 0 01-2.8 0V1.4C22.4.626 21.774 0 21 0H1.4C.626 0 0 .626 0 1.4v18.2a2.8 2.8 0 002.8 2.8h21c2.316 0 4.2-1.884 4.2-4.2v-14h-2.8v14zM14 4.2h4.2V7H14V4.2zm0 5.6h4.2v2.8H14V9.8zM4.2 4.2h7v8.4h-7V4.2zm0 14v-2.8h14v2.8h-14z" fill="url(#paint0_linear)"/><defs><linearGradient id="paint0_linear" x1="0" y1="0" x2="0" y2="22.4" gradientUnits="userSpaceOnUse"><stop stop-color="#287068"/><stop offset="1" stop-color="#1A4540"/></linearGradient></defs></svg>