<svg width="17" height="17" fill="none" xmlns="http://www.w3.org/2000/svg"><path fill-rule="evenodd" clip-rule="evenodd" d="M15.585 3.629a4.041 4.041 0 00-2.34-2.278 6.012 6.012 0 00-1.943-.364C10.445.951 10.174.94 8.004.94s-2.45 0-3.298.047a5.964 5.964 0 00-1.941.364 4.036 4.036 0 00-2.34 2.278A5.567 5.567 0 00.051 5.52c-.038.832-.05 1.096-.05 3.21s0 2.383.05 3.212c.013.647.138 1.286.372 1.893a4.045 4.045 0 002.342 2.277 5.988 5.988 0 001.942.39c.856.036 1.127.047 3.298.047 2.17 0 2.448 0 3.297-.047a6.02 6.02 0 001.943-.363 4.047 4.047 0 002.34-2.279c.235-.605.36-1.244.373-1.892.039-.832.05-1.096.05-3.21 0-2.115 0-2.383-.05-3.212a5.566 5.566 0 00-.374-1.918zm-1.083 8.25a4.264 4.264 0 01-.276 1.46 2.622 2.622 0 01-1.522 1.481 4.538 4.538 0 01-1.484.27c-.845.038-1.083.047-3.248.047-2.167 0-2.389 0-3.25-.047a4.516 4.516 0 01-1.483-.27 2.62 2.62 0 01-1.528-1.48 4.294 4.294 0 01-.276-1.445c-.038-.822-.047-1.054-.047-3.162 0-2.11 0-2.325.047-3.164.006-.498.099-.992.276-1.46A2.62 2.62 0 013.24 2.627a4.56 4.56 0 011.484-.269c.845-.037 1.083-.047 3.249-.047 2.166 0 2.388 0 3.248.047a4.516 4.516 0 011.484.27c.699.262 1.25.8 1.522 1.481.174.462.268.951.276 1.445.039.823.048 1.054.048 3.163 0 2.108 0 2.335-.038 3.162h-.01zM13.23 4.577a.946.946 0 01-.958.933.946.946 0 01-.958-.933c0-.515.429-.933.958-.933.53 0 .958.418.958.933zM3.89 8.726c0-2.21 1.84-4.002 4.11-4.002 2.268 0 4.109 1.792 4.109 4.002s-1.841 4.002-4.11 4.002c-2.27 0-4.109-1.792-4.109-4.002zm1.44 0c0 1.435 1.195 2.6 2.67 2.6 1.474 0 2.668-1.165 2.668-2.6S9.474 6.127 7.999 6.127c-1.474 0-2.67 1.164-2.67 2.6z" fill="url(#paint0_linear)"/><defs><linearGradient id="paint0_linear" x1=".002" y1=".94" x2=".002" y2="16.55" gradientUnits="userSpaceOnUse"><stop stop-color="#0A72A8"/><stop offset="1" stop-color="#1A4540"/></linearGradient></defs></svg>