<svg width="20" height="20" fill="none" xmlns="http://www.w3.org/2000/svg"><path fill-rule="evenodd" clip-rule="evenodd" d="M4.516 12.323l-1.49 6.452a.998.998 0 001.529 1.057L10 16.202l5.445 3.63a1.001 1.001 0 001.517-1.106l-1.83-6.4 4.537-4.082a1 1 0 00-.59-1.74l-5.701-.454L10.91.589a.998.998 0 00-1.822 0L6.622 6.05.92 6.503a1 1 0 00-.619 1.713l4.214 4.107zm2.853-4.326a.998.998 0 00.832-.586L10 3.43l1.799 3.981a.998.998 0 00.832.586l3.972.315-3.271 2.944c-.284.256-.397.65-.293 1.018l1.253 4.385-3.736-2.491a.995.995 0 00-1.11 0l-3.903 2.603 1.05-4.546a1 1 0 00-.276-.94L3.279 8.323l4.09-.326z" fill="url(#paint0_linear)"/><defs><linearGradient id="paint0_linear" x1="0" y1="0" x2="0" y2="20" gradientUnits="userSpaceOnUse"><stop stop-color="#0A72A8"/><stop offset="1" stop-color="#1A4540"/></linearGradient></defs></svg>