<svg width="20" height="20" fill="none" xmlns="http://www.w3.org/2000/svg"><path fill-rule="evenodd" clip-rule="evenodd" d="M0 10C0 4.486 4.486 0 10 0s10 4.486 10 10-4.486 10-10 10S0 15.514 0 10zm2 0c0 4.411 3.589 8 8 8s8-3.589 8-8-3.589-8-8-8-8 3.589-8 8zm4.066-2.066A3.939 3.939 0 0110 4a3.937 3.937 0 013.933 3.934c0 1.596-1.176 2.549-1.955 3.18l-.003.002-.041.033a6.31 6.31 0 00-.494.425c-.408.407-.44.777-.441.793L11 13H9v-.667c0-.118.029-1.177 1.027-2.174.195-.195.436-.392.691-.599.735-.594 1.216-1.028 1.216-1.626A1.936 1.936 0 0010 6a1.936 1.936 0 00-1.934 1.934h-2zM11 16v-2H9v2h2z" fill="url(#paint0_linear)"/><defs><linearGradient id="paint0_linear" x1="0" y1="0" x2="0" y2="20" gradientUnits="userSpaceOnUse"><stop stop-color="#0A72A8"/><stop offset="1" stop-color="#1A4540"/></linearGradient></defs></svg>