<svg width="16" height="11" fill="none" xmlns="http://www.w3.org/2000/svg"><path fill-rule="evenodd" clip-rule="evenodd" d="M14.266.343a1.985 1.985 0 011.408 1.386c.342 1.23.326 3.793.326 3.793s-.003 2.549-.334 3.778a1.993 1.993 0 01-1.412 1.384c-1.252.322-6.26.316-6.26.316s-4.995-.005-6.26-.343A1.985 1.985 0 01.324 9.27C-.002 8.055 0 5.492 0 5.492s.003-2.55.333-3.779A2.027 2.027 0 011.745.317C2.998-.005 8.005 0 8.005 0s5.009.006 6.26.343zM6.407 3.144l-.004 4.71 4.167-2.35-4.163-2.36z" fill="#D1A643"/></svg>