<svg width="17" height="17" fill="none" xmlns="http://www.w3.org/2000/svg"><path fill-rule="evenodd" clip-rule="evenodd" d="M8.332.146C3.731.146 0 3.78 0 8.26c0 4.049 3.047 7.405 7.03 8.016v-5.67H4.915V8.26h2.117V6.472c0-2.035 1.244-3.157 3.147-3.157.911 0 1.866.158 1.866.158v1.995h-1.053c-1.034 0-1.357.627-1.357 1.269v1.521h2.31l-.37 2.346h-1.94v5.67c3.984-.608 7.031-3.965 7.031-8.014 0-4.48-3.73-8.114-8.332-8.114z" fill="url(#paint0_linear)"/><defs><linearGradient id="paint0_linear" x1="0" y1=".146" x2="0" y2="16.276" gradientUnits="userSpaceOnUse"><stop stop-color="#0A72A8"/><stop offset="1" stop-color="#1A4540"/></linearGradient></defs></svg>