<svg width="18" height="18" fill="none" xmlns="http://www.w3.org/2000/svg"><path fill-rule="evenodd" clip-rule="evenodd" d="M16 0c1.103 0 2 .897 2 2v14c0 1.103-.897 2-2 2H2c-1.103 0-2-.897-2-2V2C0 .897.897 0 2 0h14zM2 2v14h14.002L16 2H2zm3.998 2H4v2h1.998V4zM14 4H8v2h6V4zM5.998 8H4v2h1.998V8zM14 8H8v2h6V8zm-8.002 4H4v2h1.998v-2zM14 12H8v2h6v-2z" fill="url(#paint0_linear)"/><defs><linearGradient id="paint0_linear" x1="0" y1="0" x2="0" y2="18" gradientUnits="userSpaceOnUse"><stop stop-color="#0A72A8"/><stop offset="1" stop-color="#1A4540"/></linearGradient></defs></svg>