<svg width="18" height="18" fill="none" xmlns="http://www.w3.org/2000/svg"><path fill-rule="evenodd" clip-rule="evenodd" d="M15.89 17.333H2.706c-1.038 0-1.883-.747-1.883-1.666V4c0-.92.845-1.667 1.883-1.667H4.59V.667h1.884v1.666h5.649V.667h1.883v1.666h1.883c1.039 0 1.883.748 1.883 1.667v11.667c0 .919-.844 1.666-1.883 1.666zm0-1.666v-10H2.706v10H15.89zm-9.416-7.5H4.59v1.666h1.884V8.167zm0 3.333H4.59v1.667h1.884V11.5zm3.766-3.333H8.357v1.666h1.883V8.167zm0 3.333H8.357v1.667h1.883V11.5zm3.766-3.333h-1.883v1.666h1.883V8.167zm0 3.333h-1.883v1.667h1.883V11.5z" fill="url(#paint0_linear)"/><defs><linearGradient id="paint0_linear" x1=".824" y1=".667" x2=".824" y2="17.333" gradientUnits="userSpaceOnUse"><stop stop-color="#0A72A8"/><stop offset="1" stop-color="#1A4540"/></linearGradient></defs></svg>