<svg width="18" height="18" fill="none" xmlns="http://www.w3.org/2000/svg"><path fill-rule="evenodd" clip-rule="evenodd" d="M17.487 14.14l-4.065-3.696a1.001 1.001 0 00-1.39.043l-2.394 2.461c-.576-.11-1.734-.471-2.926-1.66-1.192-1.193-1.553-2.354-1.66-2.926l2.46-2.394a1 1 0 00.042-1.391L3.86.513A1 1 0 002.47.426L.298 2.287a1 1 0 00-.29.649c-.016.25-.302 6.172 4.29 10.766C8.305 17.707 13.323 18 14.705 18c.202 0 .326-.006.36-.008a.992.992 0 00.647-.291l1.86-2.171a.997.997 0 00-.085-1.39z" fill="url(#paint0_linear)"/><defs><linearGradient id="paint0_linear" x1="0" y1=".185" x2="0" y2="18" gradientUnits="userSpaceOnUse"><stop stop-color="#0A72A8"/><stop offset="1" stop-color="#1A4540"/></linearGradient></defs></svg>