<svg width="16" height="12" fill="none" xmlns="http://www.w3.org/2000/svg"><path fill-rule="evenodd" clip-rule="evenodd" d="M15.674 1.876A1.985 1.985 0 0014.266.49C13.014.152 8.006.146 8.006.146S2.997.141 1.745.464A2.028 2.028 0 00.332 1.859C.003 3.09 0 5.64 0 5.64S-.003 8.2.325 9.418a1.985 1.985 0 001.409 1.385c1.265.338 6.26.343 6.26.343s5.008.006 6.26-.316a1.993 1.993 0 001.412-1.384c.331-1.229.334-3.778.334-3.778s.016-2.563-.326-3.792zM6.404 8l.003-4.71 4.163 2.36L6.403 8z" fill="url(#paint0_linear)"/><defs><linearGradient id="paint0_linear" x1="0" y1=".146" x2="0" y2="11.146" gradientUnits="userSpaceOnUse"><stop stop-color="#0A72A8"/><stop offset="1" stop-color="#1A4540"/></linearGradient></defs></svg>