<svg width="14" height="15" fill="none" xmlns="http://www.w3.org/2000/svg"><g filter="url(#filter0_d)"><path fill-rule="evenodd" clip-rule="evenodd" d="M12.535 9.998l-2.371-2.156a.584.584 0 00-.812.025L7.956 9.303c-.336-.064-1.011-.275-1.707-.968-.695-.696-.905-1.373-.968-1.707L6.716 5.23a.583.583 0 00.025-.811L4.585 2.05a.583.583 0 00-.811-.051L2.508 3.084a.583.583 0 00-.17.379c-.008.146-.175 3.6 2.504 6.28 2.337 2.336 5.264 2.507 6.07 2.507.118 0 .19-.004.21-.005a.578.578 0 00.377-.17l1.085-1.266a.582.582 0 00-.05-.81z" fill="url(#paint0_linear)"/></g><defs><linearGradient id="paint0_linear" x1="2.334" y1="1.858" x2="2.334" y2="12.25" gradientUnits="userSpaceOnUse"><stop stop-color="#0A72A8"/><stop offset="1" stop-color="#1A4540"/></linearGradient><filter id="filter0_d" x="1.334" y="1.858" width="12.392" height="13.392" filterUnits="userSpaceOnUse" color-interpolation-filters="sRGB"><feFlood flood-opacity="0" result="BackgroundImageFix"/><feColorMatrix in="SourceAlpha" values="0 0 0 0 0 0 0 0 0 0 0 0 0 0 0 0 0 0 127 0"/><feOffset dy="2"/><feGaussianBlur stdDeviation=".5"/><feColorMatrix values="0 0 0 0 0 0 0 0 0 0 0 0 0 0 0 0 0 0 0.05 0"/><feBlend in2="BackgroundImageFix" result="effect1_dropShadow"/><feBlend in="SourceGraphic" in2="effect1_dropShadow" result="shape"/></filter></defs></svg>