<svg width="14" height="14" fill="none" xmlns="http://www.w3.org/2000/svg"><path fill-rule="evenodd" clip-rule="evenodd" d="M10.253 9.682l3.614 3.556a.441.441 0 010 .631.458.458 0 01-.64 0l-3.63-3.57a5.924 5.924 0 01-3.707 1.294C2.637 11.593 0 8.998 0 5.796 0 2.595 2.637 0 5.89 0c3.253 0 5.89 2.595 5.891 5.796a5.717 5.717 0 01-1.528 3.886zM.906 5.796c0 2.71 2.232 4.905 4.984 4.905 2.753 0 4.984-2.196 4.984-4.905 0-2.708-2.231-4.904-4.984-4.904C3.138.892.906 3.088.906 5.796z" fill="#022F55"/></svg>