<svg width="16" height="20" fill="none" xmlns="http://www.w3.org/2000/svg"><path fill-rule="evenodd" clip-rule="evenodd" d="M8 20c-.203 0-.406-.062-.58-.185C7.116 19.598-.029 14.44 0 7.996 0 3.589 3.59 0 8 0c4.411 0 8 3.589 8 8 .03 6.44-7.116 11.598-7.42 11.815A1.004 1.004 0 018 20zm6-11.996A6.007 6.007 0 008 2C4.691 2 2 4.691 2 8c-.02 4.442 4.39 8.427 6 9.735 1.612-1.308 6.021-5.293 6-9.731zM9 12H7V9H4V7h3V4h2v3h3v2H9v3z" fill="url(#paint0_linear)"/><defs><linearGradient id="paint0_linear" x1="0" y1="0" x2="0" y2="20" gradientUnits="userSpaceOnUse"><stop stop-color="#0A72A8"/><stop offset="1" stop-color="#1A4540"/></linearGradient></defs></svg>