<svg width="28" height="28" fill="none" xmlns="http://www.w3.org/2000/svg"><path fill-rule="evenodd" clip-rule="evenodd" d="M24.8.68H3.36C1.88.68.694 1.88.694 3.36L.68 27.48l5.36-5.36H24.8c1.48 0 2.68-1.2 2.68-2.68V3.36c0-1.48-1.2-2.68-2.68-2.68zM6.04 16.76v-3.317l9.22-9.219a.667.667 0 01.944 0l2.372 2.372a.667.667 0 010 .945l-9.22 9.219H6.04zm16.08 0H12.07l2.68-2.68h7.37v2.68z" fill="url(#paint0_linear)"/><defs><linearGradient id="paint0_linear" x1=".68" y1=".68" x2=".68" y2="27.48" gradientUnits="userSpaceOnUse"><stop stop-color="#287068"/><stop offset="1" stop-color="#1A4540"/></linearGradient></defs></svg>