<svg width="24" height="24" fill="none" xmlns="http://www.w3.org/2000/svg"><path fill-rule="evenodd" clip-rule="evenodd" d="M18.062 14.768L15.77 18.74l.625 2.331a.996.996 0 01-.1.76l-.5.865a.999.999 0 01-1.366.366l-13.856-8a1 1 0 01-.366-1.366l.5-.866a.996.996 0 01.607-.466l2.332-.624 2.293-3.972c1.608-2.786 4.855-4.04 7.826-3.266A1.99 1.99 0 0116 4.34a1.99 1.99 0 01.977 2.017c2.156 2.186 2.694 5.625 1.085 8.411zM9.182.738l.511 1.935c-3.685.974-4.492 2.37-5.956 4.907l-.897-.446-.866-.5C3.506 3.98 4.692 1.925 9.182.738zm11.415 8.23l1.93-.525c1.218 4.482.032 6.537-1.47 9.136l-1.763-.945c1.496-2.59 2.302-3.987 1.303-7.665zM6 21.66a2.98 2.98 0 003.44-.323L4.56 18.52A2.98 2.98 0 006 21.66z" fill="#1A4540"/></svg>