<svg width="16" height="14" fill="none" xmlns="http://www.w3.org/2000/svg"><path fill-rule="evenodd" clip-rule="evenodd" d="M14.356 3.374c.01.142.01.283.01.425 0 4.32-3.299 9.3-9.33 9.3A9.289 9.289 0 010 11.63c.264.03.518.04.792.04a6.584 6.584 0 004.072-1.396 3.285 3.285 0 01-3.067-2.266c.203.03.406.05.62.05.293 0 .589-.04.863-.11A3.27 3.27 0 01.65 4.74V4.7c.438.242.945.394 1.482.414A3.26 3.26 0 011.116.744a9.338 9.338 0 006.763 3.42 3.702 3.702 0 01-.082-.75 3.272 3.272 0 013.28-3.268c.944 0 1.797.395 2.396 1.033a6.491 6.491 0 002.08-.79 3.264 3.264 0 01-1.441 1.801A6.59 6.59 0 0016 1.684a7.027 7.027 0 01-1.644 1.69z" fill="url(#paint0_linear)"/><defs><linearGradient id="paint0_linear" x1="0" y1=".146" x2="0" y2="13.098" gradientUnits="userSpaceOnUse"><stop stop-color="#0A72A8"/><stop offset="1" stop-color="#1A4540"/></linearGradient></defs></svg>