<svg width="29" height="29" fill="none" xmlns="http://www.w3.org/2000/svg"><path fill-rule="evenodd" clip-rule="evenodd" d="M11.872 10.206v.076h-1.365a3.298 3.298 0 01-.05-.518c0-.67.277-1.289.998-1.832l.606-.455c.38-.278.543-.619.543-.998 0-.58-.417-1.137-1.263-1.137-.897 0-1.289.72-1.289 1.428 0 .151.013.29.05.404l-1.591-.063a2.123 2.123 0 01-.063-.569c0-1.364 1.023-2.678 2.893-2.678 1.958 0 2.982 1.238 2.982 2.514 0 .998-.506 1.706-1.251 2.236l-.518.367c-.442.316-.682.707-.682 1.225zm.353 1.908c0 .556-.454.998-1.01.998a.992.992 0 01-.998-.998c0-.556.442-1.01.998-1.01s1.01.454 1.01 1.01zM27.4 6.4h-2.8V19H6.4v2.8c0 .77.63 1.4 1.4 1.4h15.4l5.6 5.6v-21c0-.77-.63-1.4-1.4-1.4zm-5.6 8.4V2.2c0-.77-.63-1.4-1.4-1.4H2.2C1.43.8.8 1.43.8 2.2v19.6l5.6-5.6h14c.77 0 1.4-.63 1.4-1.4z" fill="url(#paint0_linear)"/><defs><linearGradient id="paint0_linear" x1=".8" y1=".8" x2=".8" y2="28.8" gradientUnits="userSpaceOnUse"><stop stop-color="#287068"/><stop offset="1" stop-color="#1A4540"/></linearGradient></defs></svg>