<svg width="29" height="29" viewBox="0 0 29 29" fill="none" xmlns="http://www.w3.org/2000/svg">
<path fill-rule="evenodd" clip-rule="evenodd" d="M11.8716 10.2063V10.2821H10.5071C10.4819 10.1178 10.4566 9.95358 10.4566 9.76407C10.4566 9.09447 10.7345 8.47542 11.4547 7.93216L12.0611 7.47734C12.4401 7.19939 12.6044 6.85828 12.6044 6.47926C12.6044 5.8981 12.1874 5.34221 11.341 5.34221C10.444 5.34221 10.0523 6.06234 10.0523 6.76984C10.0523 6.92145 10.0649 7.06042 10.1028 7.17413L8.51097 7.11096C8.46044 6.93408 8.4478 6.73194 8.4478 6.54243C8.4478 5.17797 9.47115 3.86405 11.341 3.86405C13.2992 3.86405 14.3226 5.10217 14.3226 6.37819C14.3226 7.37627 13.8172 8.08377 13.0718 8.61439L12.5538 8.98077C12.1116 9.29662 11.8716 9.68827 11.8716 10.2063ZM12.2253 12.114C12.2253 12.6699 11.7705 13.112 11.2146 13.112C10.6587 13.112 10.2165 12.6699 10.2165 12.114C10.2165 11.5581 10.6587 11.1033 11.2146 11.1033C11.7705 11.1033 12.2253 11.5581 12.2253 12.114ZM27.3998 6.40005H24.5998V19H6.3998V21.8C6.3998 22.57 7.0298 23.2 7.7998 23.2H23.1998L28.7998 28.8V7.80005C28.7998 7.03005 28.1698 6.40005 27.3998 6.40005ZM21.7998 14.8V2.20005C21.7998 1.43005 21.1698 0.800049 20.3998 0.800049H2.1998C1.4298 0.800049 0.799805 1.43005 0.799805 2.20005V21.8L6.3998 16.2H20.3998C21.1698 16.2 21.7998 15.57 21.7998 14.8Z" fill="url(#paint0_linear)"/>
<defs>
<linearGradient id="paint0_linear" x1="0.799805" y1="0.800049" x2="0.799805" y2="28.8" gradientUnits="userSpaceOnUse">
<stop stop-color="#287068"/>
<stop offset="1" stop-color="#1A4540"/>
</linearGradient>
</defs>
</svg>
