<svg width="16" height="12" viewBox="0 0 16 12" fill="none" xmlns="http://www.w3.org/2000/svg">
<path fill-rule="evenodd" clip-rule="evenodd" d="M15.6744 1.87593C15.4905 1.20237 14.9509 0.670897 14.2658 0.489553C13.0139 0.151986 8.00548 0.14649 8.00548 0.14649C8.00548 0.14649 2.99786 0.140995 1.74515 0.463646C1.07363 0.64342 0.51883 1.18667 0.333363 1.85945C0.00319889 3.08882 1.17129e-06 5.63863 1.17129e-06 5.63863C1.17129e-06 5.63863 -0.00319654 8.201 0.324569 9.41781C0.508438 10.0906 1.04805 10.6221 1.73396 10.8034C2.99866 11.141 7.99349 11.1465 7.99349 11.1465C7.99349 11.1465 13.0019 11.152 14.2538 10.8301C14.9381 10.6495 15.4801 10.1188 15.6664 9.44607C15.9974 8.21748 15.9998 5.66846 15.9998 5.66846C15.9998 5.66846 16.0158 3.1053 15.6744 1.87593ZM6.40343 8.00081L6.40742 3.29057L10.57 5.64962L6.40343 8.00081Z" fill="url(#paint0_linear)"/>
<defs>
<linearGradient id="paint0_linear" x1="0" y1="0.146484" x2="0" y2="11.1465" gradientUnits="userSpaceOnUse">
<stop stop-color="#0A72A8"/>
<stop offset="1" stop-color="#1A4540"/>
</linearGradient>
</defs>
</svg>
