<svg width="17" height="17" viewBox="0 0 17 17" fill="none" xmlns="http://www.w3.org/2000/svg">
<path fill-rule="evenodd" clip-rule="evenodd" d="M15.5851 3.62866C15.1682 2.58228 14.3193 1.75486 13.2446 1.35068C12.6233 1.12305 11.9664 1.00101 11.3015 0.987167C10.4455 0.950816 10.1744 0.94043 8.00373 0.94043C5.83306 0.94043 5.55484 0.94043 4.70595 0.987167C4.04284 1.00015 3.38595 1.12218 2.76462 1.35068C1.68906 1.75486 0.840175 2.58228 0.424175 3.62866C0.190398 4.23451 0.0650642 4.87325 0.0517309 5.52064C0.0135087 6.35325 0.00195312 6.61722 0.00195312 8.73163C0.00195312 10.8452 0.00195312 11.1143 0.0517309 11.9426C0.0650642 12.59 0.190398 13.2288 0.424175 13.8355C0.841064 14.881 1.68995 15.7084 2.76551 16.1135C3.38418 16.3489 4.04106 16.4822 4.70773 16.5029C5.56373 16.5393 5.83484 16.5505 8.00551 16.5505C10.1762 16.5505 10.4544 16.5505 11.3033 16.5029C11.9673 16.49 12.6242 16.367 13.2464 16.1403C14.3211 15.7344 15.17 14.9078 15.5868 13.8614C15.8206 13.2556 15.946 12.6169 15.9593 11.9695C15.9975 11.1369 16.0091 10.8729 16.0091 8.75846C16.0091 6.64406 16.0091 6.37575 15.9593 5.54747C15.9477 4.89142 15.8233 4.24144 15.5851 3.62866ZM14.5024 11.8786C14.4962 12.3771 14.4037 12.8713 14.226 13.3395C13.9548 14.0207 13.4028 14.559 12.7042 14.8204C12.2286 14.9926 11.7273 15.0827 11.2197 15.0896C10.3753 15.1277 10.1371 15.1372 7.97173 15.1372C5.80462 15.1372 5.58329 15.1372 4.72284 15.0896C4.21706 15.0835 3.71395 14.9926 3.23929 14.8204C2.53795 14.5599 1.9824 14.0216 1.71129 13.3395C1.53706 12.8774 1.44284 12.3884 1.43484 11.895C1.39662 11.0728 1.38773 10.8409 1.38773 8.7325C1.38773 6.62328 1.38773 6.40778 1.43484 5.56911C1.44106 5.07058 1.53351 4.57725 1.71129 4.10901C1.9824 3.42614 2.53795 2.88866 3.23929 2.62728C3.71395 2.45592 4.21706 2.36504 4.72284 2.35811C5.56818 2.3209 5.80551 2.31051 7.97173 2.31051C10.138 2.31051 10.3602 2.31051 11.2197 2.35811C11.7273 2.36417 12.2286 2.45505 12.7042 2.62728C13.4028 2.88953 13.9548 3.42787 14.226 4.10901C14.4002 4.57119 14.4944 5.0602 14.5024 5.55353C14.5406 6.37662 14.5504 6.6077 14.5504 8.71692C14.5504 10.8253 14.5504 11.052 14.5122 11.8794H14.5024V11.8786ZM13.2304 4.57725C13.2304 5.09253 12.8014 5.51025 12.2722 5.51025C11.743 5.51025 11.314 5.09253 11.314 4.57725C11.314 4.06196 11.743 3.64424 12.2722 3.64424C12.8014 3.64424 13.2304 4.06196 13.2304 4.57725ZM3.88995 8.72558C3.88995 6.51596 5.72906 4.72438 7.99929 4.72438C10.2677 4.72438 12.1086 6.51596 12.1086 8.72558C12.1086 10.9361 10.2677 12.7276 7.99929 12.7276C5.72906 12.7276 3.88995 10.9361 3.88995 8.72558ZM5.32906 8.72644C5.32906 10.1614 6.52462 11.3255 7.99929 11.3255C9.47395 11.3255 10.6677 10.1614 10.6677 8.72644C10.6677 7.29058 9.47395 6.12735 7.99929 6.12735C6.52462 6.12735 5.32906 7.29058 5.32906 8.72644Z" fill="url(#paint0_linear)"/>
<defs>
<linearGradient id="paint0_linear" x1="0.00195312" y1="0.94043" x2="0.00195313" y2="16.5505" gradientUnits="userSpaceOnUse">
<stop stop-color="#0A72A8"/>
<stop offset="1" stop-color="#1A4540"/>
</linearGradient>
</defs>
</svg>
