<svg width="28" height="28" viewBox="0 0 28 28" fill="none" xmlns="http://www.w3.org/2000/svg">
<path fill-rule="evenodd" clip-rule="evenodd" d="M24.8002 0.679932H3.36018C1.87948 0.679932 0.693576 1.87923 0.693576 3.35993L0.680176 27.4799L6.04018 22.1199H24.8002C26.2809 22.1199 27.4802 20.9206 27.4802 19.4399V3.35993C27.4802 1.87923 26.2809 0.679932 24.8002 0.679932ZM6.04018 16.7599V13.4434L15.2594 4.22423C15.5207 3.96293 15.9428 3.96293 16.2041 4.22423L18.5759 6.59603C18.8372 6.85733 18.8372 7.27943 18.5759 7.54073L9.35668 16.7599H6.04018ZM22.1202 16.7599H12.0702L14.7502 14.0799H22.1202V16.7599Z" fill="url(#paint0_linear)"/>
<defs>
<linearGradient id="paint0_linear" x1="0.680176" y1="0.679932" x2="0.680176" y2="27.4799" gradientUnits="userSpaceOnUse">
<stop stop-color="#287068"/>
<stop offset="1" stop-color="#1A4540"/>
</linearGradient>
</defs>
</svg>
