<svg width="20" height="19" viewBox="0 0 20 19" fill="none" xmlns="http://www.w3.org/2000/svg">
<path fill-rule="evenodd" clip-rule="evenodd" d="M18 5H14V2C14 0.897 13.103 0 12 0H8C6.897 0 6 0.897 6 2V7H2C0.897 7 0 7.897 0 9V18C0 18.552 0.447 19 1 19H7H13H19C19.553 19 20 18.552 20 18V7C20 5.897 19.103 5 18 5ZM2 9H6V17H2V9ZM8 8V2H12V6V17H8V8ZM18 17H14V7H18V17Z" fill="url(#paint0_linear)"/>
<defs>
<linearGradient id="paint0_linear" x1="0" y1="0" x2="0" y2="19" gradientUnits="userSpaceOnUse">
<stop stop-color="#0A72A8"/>
<stop offset="1" stop-color="#1A4540"/>
</linearGradient>
</defs>
</svg>
