<svg width="18" height="18" viewBox="0 0 18 18" fill="none" xmlns="http://www.w3.org/2000/svg">
<path fill-rule="evenodd" clip-rule="evenodd" d="M17.4873 14.14L13.4223 10.444C13.0233 10.081 12.4073 10.1 12.0313 10.487L9.63828 12.948C9.06228 12.838 7.90428 12.477 6.71228 11.288C5.52028 10.095 5.15928 8.934 5.05228 8.362L7.51128 5.968C7.89928 5.592 7.91728 4.977 7.55428 4.577L3.85928 0.512999C3.49628 0.111999 2.87928 0.0739991 2.46828 0.425999L0.298282 2.287C0.125282 2.461 0.022282 2.691 0.00828196 2.936C-0.00671804 3.186 -0.292718 9.108 4.29928 13.702C8.30528 17.707 13.3233 18 14.7053 18C14.9073 18 15.0313 17.994 15.0643 17.992C15.3093 17.978 15.5393 17.875 15.7123 17.701L17.5723 15.53C17.9263 15.119 17.8873 14.503 17.4873 14.14Z" fill="url(#paint0_linear)"/>
<defs>
<linearGradient id="paint0_linear" x1="0" y1="0.185181" x2="0" y2="18" gradientUnits="userSpaceOnUse">
<stop stop-color="#0A72A8"/>
<stop offset="1" stop-color="#1A4540"/>
</linearGradient>
</defs>
</svg>
