<svg width="16" height="11" viewBox="0 0 16 11" fill="none" xmlns="http://www.w3.org/2000/svg">
<path fill-rule="evenodd" clip-rule="evenodd" d="M14.2658 0.343068C14.9509 0.524412 15.4905 1.05588 15.6744 1.72945C16.0158 2.95882 15.9998 5.52197 15.9998 5.52197C15.9998 5.52197 15.9974 8.071 15.6664 9.29959C15.4801 9.97237 14.9381 10.5031 14.2538 10.6836C13.0019 11.0055 7.99349 11 7.99349 11C7.99349 11 2.99866 10.9945 1.73396 10.6569C1.04805 10.4756 0.508438 9.9441 0.324569 9.27132C-0.00319654 8.05451 1.17129e-06 5.49214 1.17129e-06 5.49214C1.17129e-06 5.49214 0.00319889 2.94233 0.333363 1.71296C0.51883 1.04018 1.07363 0.496936 1.74515 0.317162C2.99786 -0.00548932 8.00548 5.96306e-06 8.00548 5.96306e-06C8.00548 5.96306e-06 13.0139 0.00550124 14.2658 0.343068ZM6.40742 3.14409L6.40343 7.85433L10.57 5.50313L6.40742 3.14409Z" fill="#D1A643"/>
</svg>
