<svg width="14" height="14" viewBox="0 0 14 14" fill="none" xmlns="http://www.w3.org/2000/svg">
<path fill-rule="evenodd" clip-rule="evenodd" d="M10.2528 9.68154L13.8674 13.2383C14.0443 13.4125 14.0443 13.6952 13.867 13.8694C13.6902 14.0435 13.4032 14.0435 13.2264 13.8694L9.5977 10.2985C8.58506 11.1068 7.29586 11.593 5.89025 11.593C2.63704 11.593 0 8.99799 0 5.79648C0 2.59497 2.63704 0 5.89025 0C9.14346 0 11.7805 2.59497 11.781 5.79648C11.781 7.29309 11.1994 8.65315 10.2528 9.68154ZM0.906298 5.79648C0.906298 8.50526 3.13768 10.7011 5.89025 10.7011C8.64284 10.7011 10.8742 8.50526 10.8742 5.79648C10.8742 3.08771 8.64284 0.891823 5.89025 0.891823C3.13768 0.891823 0.906298 3.08771 0.906298 5.79648Z" fill="#022F55"/>
</svg>
