<svg width="18" height="18" viewBox="0 0 18 18" fill="none" xmlns="http://www.w3.org/2000/svg">
<path fill-rule="evenodd" clip-rule="evenodd" d="M16 0C17.103 0 18 0.897 18 2V16C18 17.103 17.103 18 16 18H2C0.897 18 0 17.103 0 16V2C0 0.897 0.897 0 2 0H16ZM2 2V16H16.002L16 2H2ZM5.998 4H4V6H5.998V4ZM14 4H8V6H14V4ZM5.998 8H4V10H5.998V8ZM14 8H8V10H14V8ZM5.998 12H4V14H5.998V12ZM14 12H8V14H14V12Z" fill="url(#paint0_linear)"/>
<defs>
<linearGradient id="paint0_linear" x1="0" y1="0" x2="0" y2="18" gradientUnits="userSpaceOnUse">
<stop stop-color="#0A72A8"/>
<stop offset="1" stop-color="#1A4540"/>
</linearGradient>
</defs>
</svg>
