<svg width="28" height="23" viewBox="0 0 28 23" fill="none" xmlns="http://www.w3.org/2000/svg">
<path fill-rule="evenodd" clip-rule="evenodd" d="M25.2 18.2C25.2 18.9728 24.5728 19.6 23.8 19.6C23.0272 19.6 22.4 18.9728 22.4 18.2V1.4C22.4 0.6258 21.7742 0 21 0H1.4C0.6258 0 0 0.6258 0 1.4V19.6C0 21.1456 1.2544 22.4 2.8 22.4H18.2H21.2408H23.8C26.1156 22.4 28 20.5156 28 18.2V4.2H25.2V18.2ZM14 4.2H18.2V7H14V4.2ZM14 9.8H18.2V12.6H14V9.8ZM4.2 4.2H11.2V12.6H4.2V4.2ZM4.2 18.2V15.4H18.2V18.2H4.2Z" fill="url(#paint0_linear)"/>
<defs>
<linearGradient id="paint0_linear" x1="0" y1="0" x2="0" y2="22.4" gradientUnits="userSpaceOnUse">
<stop stop-color="#287068"/>
<stop offset="1" stop-color="#1A4540"/>
</linearGradient>
</defs>
</svg>
