<svg width="18" height="18" viewBox="0 0 18 18" fill="none" xmlns="http://www.w3.org/2000/svg">
<path fill-rule="evenodd" clip-rule="evenodd" d="M15.8892 17.3333H2.70734C1.6688 17.3333 0.824219 16.5858 0.824219 15.6667V5.66666V3.99999C0.824219 3.08082 1.6688 2.33332 2.70734 2.33332H4.59045V0.666656H6.47357V2.33332H12.1229V0.666656H14.006V2.33332H15.8892C16.9277 2.33332 17.7723 3.08082 17.7723 3.99999V5.66666V15.6667C17.7723 16.5858 16.9277 17.3333 15.8892 17.3333ZM15.8901 15.6667L15.8892 5.66666H2.70734V15.6667H15.8901ZM6.47357 8.16666H4.59045V9.83332H6.47357V8.16666ZM6.47357 11.5H4.59045V13.1667H6.47357V11.5ZM10.2398 8.16666H8.35669V9.83332H10.2398V8.16666ZM10.2398 11.5H8.35669V13.1667H10.2398V11.5ZM14.006 8.16666H12.1229V9.83332H14.006V8.16666ZM14.006 11.5H12.1229V13.1667H14.006V11.5Z" fill="url(#paint0_linear)"/>
<defs>
<linearGradient id="paint0_linear" x1="0.824219" y1="0.666656" x2="0.824219" y2="17.3333" gradientUnits="userSpaceOnUse">
<stop stop-color="#0A72A8"/>
<stop offset="1" stop-color="#1A4540"/>
</linearGradient>
</defs>
</svg>
