<svg width="16" height="13" viewBox="0 0 16 13" fill="none" xmlns="http://www.w3.org/2000/svg">
<path d="M14.3562 3.22776C14.3668 3.36976 14.3668 3.51094 14.3668 3.65213C14.3668 7.97285 11.067 12.9516 5.03643 12.9516C3.17851 12.9516 1.45247 12.4153 0 11.4838C0.26379 11.5138 0.51781 11.5244 0.792184 11.5244C2.32526 11.5244 3.73621 11.0083 4.86383 10.1279C3.42194 10.0979 2.21372 9.15669 1.79687 7.86169C1.99959 7.89171 2.20313 7.912 2.41645 7.912C2.71036 7.912 3.0059 7.87143 3.28028 7.80083C1.77651 7.49737 0.650519 6.18208 0.650519 4.59336V4.55278C1.08773 4.79539 1.59495 4.94713 2.1323 4.96741C1.24893 4.38158 0.670059 3.3795 0.670059 2.24597C0.670059 1.63904 0.832078 1.08241 1.11622 0.597193C2.73071 2.57945 5.15774 3.87526 7.87869 4.01726C7.82821 3.77384 7.79727 3.52149 7.79727 3.26833C7.79727 1.46702 9.25952 0 11.0767 0C12.0212 0 12.8736 0.394342 13.4728 1.03211C14.2137 0.89011 14.9237 0.616667 15.5538 0.24261C15.3104 1.00127 14.7918 1.63904 14.1119 2.04393C14.7722 1.97252 15.4122 1.79077 16 1.53761C15.5538 2.18511 14.9961 2.76202 14.3562 3.22776Z" fill="#D1A643"/>
</svg>
