<svg width="20" height="20" viewBox="0 0 20 20" fill="none" xmlns="http://www.w3.org/2000/svg">
<path fill-rule="evenodd" clip-rule="evenodd" d="M0.0342964 12.6552C0.102296 12.9112 0.269296 13.1302 0.499296 13.2622L2.4093 14.3662V16.5652C2.4093 17.1172 2.8563 17.5652 3.4093 17.5652H5.6083L6.7123 19.4752C6.8453 19.7042 7.0643 19.8722 7.3203 19.9412C7.4053 19.9632 7.4913 19.9752 7.5783 19.9752C7.7523 19.9752 7.9253 19.9302 8.0793 19.8412L9.9873 18.7372L11.8973 19.8412C12.1263 19.9742 12.4003 20.0092 12.6563 19.9412C12.9123 19.8732 13.1313 19.7052 13.2633 19.4752L14.3663 17.5662H16.5653C17.1183 17.5662 17.5653 17.1182 17.5653 16.5662V14.3672L19.4753 13.2632C19.9533 12.9872 20.1173 12.3752 19.8403 11.8972L18.7363 9.98816L19.8403 8.08016C20.1163 7.60216 19.9523 6.99016 19.4753 6.71416L17.5653 5.61016V3.41016C17.5653 2.85816 17.1183 2.41016 16.5653 2.41016H14.3663L13.2633 0.501164C13.1303 0.271164 12.9113 0.104164 12.6563 0.0351638C12.4003 -0.0348362 12.1273 0.0021638 11.8973 0.135164L9.9873 1.23916L8.0783 0.135164C7.6003 -0.142836 6.9883 0.0221638 6.7123 0.500164L5.6083 2.41016H3.4093C2.8563 2.41016 2.4093 2.85816 2.4093 3.41016V5.60916L0.499296 6.71316C0.269296 6.84616 0.102296 7.06516 0.0342964 7.32116C-0.0347036 7.57716 0.00129639 7.85016 0.134296 8.08016L1.2383 9.98816L0.134296 11.8962C0.00129639 12.1262 -0.0347036 12.3992 0.0342964 12.6552ZM3.2583 9.48716L2.3663 7.94416L3.9103 7.05116C4.2193 6.87216 4.4093 6.54216 4.4093 6.18516V4.41016H6.1853C6.5423 4.41016 6.8733 4.22016 7.0513 3.91016L7.9433 2.36716L9.4873 3.25916C9.7963 3.43816 10.1783 3.43816 10.4873 3.25916L12.0323 2.36716L12.9233 3.91016C13.1023 4.22016 13.4323 4.41016 13.7893 4.41016H15.5653V6.18616C15.5653 6.54316 15.7553 6.87316 16.0643 7.05216L17.6083 7.94516L16.7153 9.48816C16.5363 9.79816 16.5363 10.1792 16.7153 10.4892L17.6083 12.0322L16.0643 12.9252C15.7553 13.1042 15.5653 13.4342 15.5653 13.7912V15.5672H13.7893C13.4323 15.5672 13.1013 15.7572 12.9233 16.0672L12.0323 17.6102L10.4873 16.7172C10.3333 16.6282 10.1603 16.5832 9.9873 16.5832C9.8143 16.5832 9.6413 16.6282 9.4863 16.7172L7.9433 17.6102L7.0513 16.0672C6.8723 15.7582 6.5423 15.5672 6.1853 15.5672H4.4093V13.7912C4.4093 13.4342 4.2193 13.1042 3.9103 12.9252L2.3663 12.0322L3.2593 10.4892C3.4383 10.1792 3.4383 9.79716 3.2583 9.48716Z" fill="url(#paint0_linear)"/>
<defs>
<linearGradient id="paint0_linear" x1="0" y1="0" x2="0" y2="19.9752" gradientUnits="userSpaceOnUse">
<stop stop-color="#0A72A8"/>
<stop offset="1" stop-color="#1A4540"/>
</linearGradient>
</defs>
</svg>
