<svg width="16" height="14" viewBox="0 0 16 14" fill="none" xmlns="http://www.w3.org/2000/svg">
<path fill-rule="evenodd" clip-rule="evenodd" d="M14.3562 3.37425C14.3668 3.51624 14.3668 3.65743 14.3668 3.79861C14.3668 8.11934 11.067 13.0981 5.03643 13.0981C3.17851 13.0981 1.45247 12.5618 0 11.6303C0.26379 11.6603 0.51781 11.6708 0.792184 11.6708C2.32526 11.6708 3.73621 11.1548 4.86383 10.2744C3.42194 10.2444 2.21372 9.30317 1.79687 8.00817C1.99959 8.0382 2.20313 8.05848 2.41645 8.05848C2.71036 8.05848 3.0059 8.01791 3.28028 7.94732C1.77651 7.64385 0.650519 6.32857 0.650519 4.73984V4.69927C1.08773 4.94188 1.59495 5.09361 2.1323 5.1139C1.24893 4.52806 0.670059 3.52598 0.670059 2.39245C0.670059 1.78552 0.832078 1.2289 1.11622 0.743677C2.73071 2.72594 5.15774 4.02175 7.87869 4.16374C7.82821 3.92032 7.79727 3.66798 7.79727 3.41482C7.79727 1.6135 9.25952 0.146484 11.0767 0.146484C12.0212 0.146484 12.8736 0.540826 13.4728 1.17859C14.2137 1.03659 14.9237 0.763151 15.5538 0.389094C15.3104 1.14776 14.7918 1.78552 14.1119 2.19041C14.7722 2.11901 15.4122 1.93725 16 1.68409C15.5538 2.33159 14.9961 2.9085 14.3562 3.37425Z" fill="url(#paint0_linear)"/>
<defs>
<linearGradient id="paint0_linear" x1="0" y1="0.146484" x2="0" y2="13.0981" gradientUnits="userSpaceOnUse">
<stop stop-color="#0A72A8"/>
<stop offset="1" stop-color="#1A4540"/>
</linearGradient>
</defs>
</svg>
