<svg width="24" height="24" viewBox="0 0 24 24" fill="none" xmlns="http://www.w3.org/2000/svg">
<path fill-rule="evenodd" clip-rule="evenodd" d="M18.0621 14.768L15.7691 18.7396L16.3939 21.0714C16.4632 21.3274 16.4271 21.5999 16.2941 21.8302L15.7941 22.6962C15.5176 23.1752 14.907 23.3388 14.4281 23.0623L0.571709 15.0623C0.0936629 14.7863 -0.0708162 14.1752 0.205684 13.6962L0.705684 12.8302C0.838683 12.5999 1.05662 12.4324 1.31293 12.3644L3.64473 11.7396L5.93773 7.76805C7.54623 4.98204 10.7926 3.72711 13.7644 4.5018C14.3872 4.00918 15.2673 3.91684 15.9999 4.33984C16.7326 4.76284 17.0926 5.57118 16.9774 6.3568C19.1333 8.54261 19.6706 11.982 18.0621 14.768ZM9.18219 0.738491L9.69328 2.67325C6.00768 3.64689 5.20118 5.04379 3.73718 7.57951L2.83966 7.13407L1.97363 6.63407C3.50613 3.9797 4.69213 1.92549 9.18219 0.738491ZM20.5974 8.96875L22.5268 8.44299C23.7447 12.9255 22.5587 14.9797 21.0577 17.5795L19.2941 16.6341C20.7896 14.0438 21.5961 12.6469 20.5974 8.96875ZM5.99991 21.6604C7.13527 22.3159 8.50144 22.1416 9.44037 21.3373L4.55945 18.5193C4.33239 19.7346 4.86455 21.0049 5.99991 21.6604Z" fill="#1A4540"/>
</svg>
