<svg width="17" height="17" viewBox="0 0 17 17" fill="none" xmlns="http://www.w3.org/2000/svg">
<path fill-rule="evenodd" clip-rule="evenodd" d="M15.5848 3.48218C15.1679 2.43579 14.319 1.60838 13.2444 1.20419C12.623 0.976565 11.9662 0.85453 11.3013 0.840682C10.4453 0.804331 10.1742 0.793945 8.00349 0.793945C5.83282 0.793945 5.5546 0.793945 4.70571 0.840682C4.0426 0.853665 3.38571 0.9757 2.76438 1.20419C1.68882 1.60838 0.839931 2.43579 0.423931 3.48218C0.190153 4.08803 0.0648201 4.72676 0.0514868 5.37416C0.0132645 6.20676 0.00170898 6.47074 0.00170898 8.58515C0.00170898 10.6987 0.00170898 10.9679 0.0514868 11.7961C0.0648201 12.4435 0.190153 13.0823 0.423931 13.689C0.84082 14.7345 1.68971 15.5619 2.76526 15.967C3.38393 16.2024 4.04082 16.3357 4.70749 16.3564C5.56349 16.3928 5.8346 16.4041 8.00526 16.4041C10.1759 16.4041 10.4542 16.4041 11.303 16.3564C11.967 16.3435 12.6239 16.2206 13.2462 15.9938C14.3208 15.5879 15.1697 14.7613 15.5866 13.715C15.8204 13.1091 15.9457 12.4704 15.959 11.823C15.9973 10.9904 16.0088 10.7264 16.0088 8.61198C16.0088 6.49757 16.0088 6.22927 15.959 5.40099C15.9475 4.74494 15.823 4.09495 15.5848 3.48218ZM14.5022 11.7321C14.4959 12.2306 14.4035 12.7248 14.2257 13.1931C13.9546 13.8742 13.4026 14.4125 12.7039 14.6739C12.2284 14.8462 11.727 14.9362 11.2195 14.9431C10.375 14.9812 10.1368 14.9907 7.97149 14.9907C5.80438 14.9907 5.58304 14.9907 4.7226 14.9431C4.21682 14.937 3.71371 14.8462 3.23904 14.6739C2.53771 14.4134 1.98215 13.8751 1.71104 13.1931C1.53682 12.7309 1.4426 12.2419 1.4346 11.7485C1.39638 10.9263 1.38749 10.6944 1.38749 8.58602C1.38749 6.4768 1.38749 6.26129 1.4346 5.42262C1.44082 4.9241 1.53326 4.43076 1.71104 3.96253C1.98215 3.27965 2.53771 2.74218 3.23904 2.4808C3.71371 2.30943 4.21682 2.21855 4.7226 2.21163C5.56793 2.17441 5.80526 2.16403 7.97149 2.16403C10.1377 2.16403 10.3599 2.16403 11.2195 2.21163C11.727 2.21769 12.2284 2.30857 12.7039 2.4808C13.4026 2.74304 13.9546 3.28138 14.2257 3.96253C14.3999 4.42471 14.4942 4.91371 14.5022 5.40704C14.5404 6.23013 14.5502 6.46122 14.5502 8.57044C14.5502 10.6788 14.5502 10.9055 14.5119 11.733H14.5022V11.7321ZM13.2302 4.43076C13.2302 4.94605 12.8011 5.36377 12.2719 5.36377C11.7427 5.36377 11.3137 4.94605 11.3137 4.43076C11.3137 3.91548 11.7427 3.49776 12.2719 3.49776C12.8011 3.49776 13.2302 3.91548 13.2302 4.43076ZM3.88971 8.57909C3.88971 6.36948 5.72882 4.5779 7.99904 4.5779C10.2675 4.5779 12.1084 6.36948 12.1084 8.57909C12.1084 10.7896 10.2675 12.5811 7.99904 12.5811C5.72882 12.5811 3.88971 10.7896 3.88971 8.57909ZM5.32882 8.57996C5.32882 10.015 6.52438 11.179 7.99904 11.179C9.47371 11.179 10.6675 10.015 10.6675 8.57996C10.6675 7.1441 9.47371 5.98087 7.99904 5.98087C6.52438 5.98087 5.32882 7.1441 5.32882 8.57996Z" fill="#D1A643"/>
</svg>
