<svg width="20" height="20" viewBox="0 0 20 20" fill="none" xmlns="http://www.w3.org/2000/svg">
<path fill-rule="evenodd" clip-rule="evenodd" d="M0 10C0 4.486 4.486 0 10 0C15.514 0 20 4.486 20 10C20 15.514 15.514 20 10 20C4.486 20 0 15.514 0 10ZM2 10C2 14.411 5.589 18 10 18C14.411 18 18 14.411 18 10C18 5.589 14.411 2 10 2C5.589 2 2 5.589 2 10ZM6.066 7.934C6.066 5.765 7.831 4 10 4C12.169 4 13.934 5.765 13.933 7.934C13.933 9.53 12.7569 10.4826 11.9779 11.1136L11.975 11.116C11.9613 11.1271 11.9476 11.1381 11.934 11.1491C11.7527 11.295 11.5795 11.4345 11.44 11.574C11.032 11.981 11 12.351 10.999 12.367L11 13H9V12.333C9 12.215 9.029 11.156 10.027 10.159C10.222 9.964 10.463 9.767 10.718 9.56C11.453 8.966 11.934 8.532 11.934 7.934C11.934 6.867 11.066 6 10 6C8.934 6 8.066 6.867 8.066 7.934H6.066ZM11 16V14H9V16H11Z" fill="url(#paint0_linear)"/>
<defs>
<linearGradient id="paint0_linear" x1="0" y1="0" x2="0" y2="20" gradientUnits="userSpaceOnUse">
<stop stop-color="#0A72A8"/>
<stop offset="1" stop-color="#1A4540"/>
</linearGradient>
</defs>
</svg>
