<?xml version="1.0" standalone="no"?>
<!DOCTYPE svg PUBLIC "-//W3C//DTD SVG 1.1//EN" "http://www.w3.org/Graphics/SVG/1.1/DTD/svg11.dtd" >
<svg xmlns="http://www.w3.org/2000/svg">
<metadata>Generated by IcoMoon</metadata>
<defs>
<font id="icomoon" horiz-adv-x="1024">
<font-face units-per-em="1024" ascent="960" descent="-64" />
<missing-glyph horiz-adv-x="1024" />
<glyph unicode="&#x20;" horiz-adv-x="512" d="" />
<glyph unicode="&#xe900;" glyph-name="icon-triangle" d="M56.875 679.32l455.111-428.34 455.112 428.34h-910.223z" />
<glyph unicode="&#xe901;" glyph-name="icon-arrow" d="M24.894 643.668l486.998-486.997 486.997 486.997-120.661 120.662-366.336-366.336-366.336 366.336-120.662-120.662z" />
<glyph unicode="&#xe902;" glyph-name="icon-star" d="M486.941 161.882l-300.946-158.214 57.475 335.106-243.47 237.325 336.468 48.892 150.473 304.892 150.475-304.892 336.468-48.892-243.471-237.325 57.477-335.106-300.949 158.214z" />
<glyph unicode="&#xe903;" glyph-name="icon-checkmark" d="M387.595 283.507l-213.094 213.094-91.502-91.501 304.595-304.596 628.153 628.151-91.503 91.502-536.65-536.649z" />
<glyph unicode="&#xe904;" glyph-name="icon-star-filled" d="M486.941 161.882l-300.946-158.214 57.475 335.106-243.47 237.325 336.468 48.892 150.473 304.892 150.475-304.892 336.468-48.892-243.471-237.325 57.477-335.106-300.949 158.214z" />
<glyph unicode="&#xe905;" glyph-name="icon-credit-card" d="M102.4 857.6h819.2c56.474 0 102.4-45.926 102.4-102.4v-614.4c0-56.474-45.926-102.4-102.4-102.4h-819.2c-56.474 0-102.4 45.926-102.4 102.4v614.4c0 56.474 45.926 102.4 102.4 102.4zM921.6 755.2h-819.2v-102.4h819.2v102.4zM102.4 448v-307.2h819.302l-0.051 307.2h-819.251zM512 345.6h-307.2v-102.4h307.2v102.4z" />
<glyph unicode="&#xe906;" glyph-name="icon-star-big-filled" d="M512.011 154.456l301.349-181.884-79.967 342.799 266.24 230.641-350.599 29.746-137.022 323.292-137.019-323.292-350.6-29.746 266.24-230.641-79.969-342.799 301.347 181.884z" />
<glyph unicode="&#xe907;" glyph-name="icon-data" d="M921.6 678.4h-204.8v153.6c0 56.474-45.926 102.4-102.4 102.4h-204.8c-56.474 0-102.4-45.926-102.4-102.4v-256h-204.8c-56.474 0-102.4-45.926-102.4-102.4v-460.8c0-28.262 22.886-51.2 51.2-51.2h921.6c28.314 0 51.2 22.938 51.2 51.2v563.2c0 56.474-45.926 102.4-102.4 102.4zM102.4 473.6h204.8v-409.6h-204.8v409.6zM409.6 524.8v307.2h204.8v-768h-204.8v460.8zM921.6 64h-204.8v512h204.8v-512z" />
<glyph unicode="&#xe908;" glyph-name="icon-info" d="M0 448c0 282.317 229.683 512 512 512s512-229.683 512-512c0-282.317-229.683-512-512-512s-512 229.683-512 512zM102.4 448c0-225.843 183.757-409.6 409.6-409.6s409.6 183.757 409.6 409.6c0 225.843-183.757 409.6-409.6 409.6s-409.6-183.757-409.6-409.6zM563.2 192v307.2h-102.4v-307.2h102.4zM563.2 601.6v102.4h-102.4v-102.4h102.4z" />
<glyph unicode="&#xe909;" glyph-name="icon-reports" d="M910.222 960c62.748 0 113.778-51.029 113.778-113.778v-796.444c0-62.748-51.029-113.778-113.778-113.778h-796.444c-62.748 0-113.778 51.029-113.778 113.778v796.444c0 62.748 51.029 113.778 113.778 113.778h796.444zM113.778 846.222v-796.444h796.558l-0.114 796.444h-796.444zM341.22 732.444h-113.664v-113.778h113.664v113.778zM796.444 732.444h-341.333v-113.778h341.333v113.778zM341.22 504.889h-113.664v-113.778h113.664v113.778zM796.444 504.889h-341.333v-113.778h341.333v113.778zM341.22 277.333h-113.664v-113.778h113.664v113.778zM796.444 277.333h-341.333v-113.778h341.333v113.778z" />
<glyph unicode="&#xe90a;" glyph-name="icon-blog" d="M921.6 202.971c0-28.262-22.938-51.2-51.2-51.2s-51.2 22.938-51.2 51.2v614.4c0 28.314-22.886 51.2-51.2 51.2h-716.8c-28.314 0-51.2-22.886-51.2-51.2v-665.6c0-56.525 45.875-102.4 102.4-102.4h768c84.685 0 153.6 68.915 153.6 153.6v512h-102.4v-512zM512 714.971h153.6v-102.4h-153.6v102.4zM512 510.171h153.6v-102.4h-153.6v102.4zM153.6 714.971h256v-307.2h-256v307.2zM153.6 202.971v102.4h512v-102.4h-512z" />
<glyph unicode="&#xe90b;" glyph-name="icon-facebook" d="M501.911 951.176c-277.183 0-501.911-218.814-501.911-488.703 0-243.886 183.517-446.036 423.504-482.839v341.54h-127.498v141.299h127.498v107.672c0 122.579 74.943 190.173 189.541 190.173 54.917 0 112.441-9.53 112.441-9.53v-120.184h-63.452c-62.241 0-81.717-37.731-81.717-76.392v-91.641h139.091l-22.233-141.301h-116.858v-341.534c239.985 36.605 423.504 238.803 423.504 482.737 0 269.888-224.726 488.703-501.911 488.703z" />
<glyph unicode="&#xe90c;" glyph-name="icon-heading" d="M906.979 935.134h-784.092c-54.151 0-97.522-43.86-97.522-98.011l-0.49-882.102 196.023 196.023h686.081c54.151 0 98.011 43.86 98.011 98.011v588.067c0 54.151-43.86 98.011-98.011 98.011zM220.898 347.067v121.289l337.16 337.158c9.556 9.556 24.993 9.556 34.549 0l86.74-86.74c9.556-9.556 9.556-24.993 0-34.549l-337.16-337.158h-121.289zM808.967 347.067h-367.543l98.011 98.011h269.531v-98.011z" />
<glyph unicode="&#xe90d;" glyph-name="icon-location-plus" d="M512.005-64c-10.394 0-20.787 3.174-29.696 9.472-15.565 11.11-381.389 275.2-379.904 605.133 0 225.638 183.757 409.395 409.6 409.395s409.601-183.757 409.601-409.6c1.485-329.728-364.34-593.818-379.905-604.928-8.909-6.298-19.302-9.472-29.696-9.472zM819.205 550.195c0 169.626-137.779 307.405-307.201 307.405s-307.2-137.779-307.2-307.2c-1.075-227.43 224.717-431.462 307.2-498.432 82.534 66.97 308.276 271.002 307.201 498.227zM563.209 345.6h-102.4v153.6h-153.6v102.4h153.6v153.6h102.4v-153.6h153.601v-102.4h-153.601v-153.6z" />
<glyph unicode="&#xe90e;" glyph-name="icon-phone" d="M994.833 155.591l-231.253 210.261c-22.699 20.651-57.742 19.57-79.132-2.446l-136.136-140.004c-32.768 6.258-98.645 26.795-166.457 94.436-67.812 67.868-88.348 133.916-94.436 166.457l139.89 136.192c22.073 21.39 23.097 56.377 2.446 79.132l-210.204 231.197c-20.651 22.812-55.751 24.974-79.132 4.949l-123.449-105.87c-9.842-9.899-15.701-22.983-16.498-36.921-0.853-14.222-17.124-351.118 244.11-612.466 227.897-227.84 513.366-244.508 591.987-244.508 11.492 0 18.546 0.341 20.423 0.455 13.938 0.796 27.022 6.656 36.864 16.555l105.813 123.506c20.139 23.381 17.92 58.425-4.836 79.076z" />
<glyph unicode="&#xe90f;" glyph-name="icon-help" d="M0 448c0 282.317 229.683 512 512 512s512-229.683 512-512c0-282.317-229.683-512-512-512s-512 229.683-512 512zM102.4 448c0-225.843 183.757-409.6 409.6-409.6s409.6 183.757 409.6 409.6c0 225.843-183.757 409.6-409.6 409.6s-409.6-183.757-409.6-409.6zM310.579 553.779c0 111.053 90.368 201.421 201.421 201.421s201.421-90.368 201.37-201.421c0-81.715-60.216-130.488-100.101-162.796l-0.148-0.123c-0.701-0.568-1.403-1.132-2.099-1.695-9.283-7.47-18.15-14.612-25.293-21.755-20.89-20.838-22.528-39.782-22.579-40.602l0.051-32.41h-102.4v34.15c0 6.042 1.485 60.262 52.582 111.309 9.984 9.984 22.323 20.070 35.379 30.669 37.632 30.413 62.259 52.634 62.259 83.251 0 54.63-44.442 99.021-99.021 99.021s-99.021-44.39-99.021-99.021h-102.4zM563.2 140.8v102.4h-102.4v-102.4h102.4z" />
<glyph unicode="&#xe910;" glyph-name="icon-youtube" d="M1003.162 711.94c-11.77 43.108-46.304 77.122-90.15 88.728-80.122 21.604-400.66 21.956-400.66 21.956s-320.488 0.352-400.661-20.298c-42.977-11.506-78.484-46.274-90.354-89.331-21.131-78.68-21.335-241.868-21.335-241.868s-0.205-163.992 20.772-241.868c11.768-43.059 46.303-77.075 90.201-88.678 80.941-21.606 400.61-21.958 400.61-21.958s320.538-0.352 400.66 20.25c43.795 11.558 78.483 45.523 90.406 88.578 21.184 78.63 21.338 241.767 21.338 241.767s1.024 164.042-20.826 242.722zM409.82 319.948l0.255 301.455 266.405-150.979-266.66-150.476z" />
<glyph unicode="&#xe911;" glyph-name="icon-bell" d="M770.65 329.899l-97.835-169.455 26.658-99.49c2.957-10.923 1.417-22.549-4.258-32.375l-21.333-36.949c-11.797-20.437-37.85-27.418-58.283-15.62l-591.206 341.333c-20.397 11.776-27.414 37.85-15.617 58.287l21.333 36.949c5.675 9.826 14.973 16.973 25.909 19.874l99.49 26.658 97.835 169.453c68.629 118.87 207.141 172.413 333.938 139.36 26.573 21.018 64.124 24.958 95.381 6.91 31.262-18.048 46.622-52.537 41.707-86.057 91.985-93.261 114.91-240.009 46.281-358.878zM391.773 928.491l21.807-82.55c-157.252-41.542-191.663-101.143-254.127-209.334l-38.294 19.005-36.951 21.333c65.387 113.253 115.989 200.899 307.565 251.545zM878.822 577.333l82.321 22.432c51.964-191.254 1.361-278.9-62.682-389.824l-75.247 40.337c63.808 110.519 98.219 170.121 55.607 327.055zM255.996 35.823c48.442-27.968 106.732-20.531 146.793 13.786l-208.253 120.235c-9.688-51.853 13.018-106.052 61.46-134.020z" />
<glyph unicode="&#xe912;" glyph-name="icon-twitter" d="M918.797 680.048c0.678-9.087 0.678-18.124 0.678-27.159 0-276.527-211.187-595.167-597.144-595.167-118.907 0-229.373 34.323-322.332 93.939 16.883-1.92 33.14-2.592 50.7-2.592 98.117 0 188.418 33.024 260.585 89.37-92.281 1.92-169.607 62.159-196.285 145.039 12.974-1.922 26.001-3.22 39.653-3.22 18.81 0 37.725 2.596 55.285 7.114-96.241 19.422-168.305 103.6-168.305 205.279v2.596c27.982-15.527 60.444-25.238 94.834-26.536-56.536 37.494-93.583 101.627-93.583 174.173 0 38.844 10.369 74.467 28.554 105.521 103.327-126.865 258.657-209.797 432.798-218.884-3.231 15.579-5.211 31.729-5.211 47.931 0 115.284 93.584 209.174 209.884 209.174 60.448 0 115.002-25.238 153.35-66.055 47.418 9.088 92.858 26.588 133.184 50.528-15.578-48.555-48.768-89.371-92.282-115.284 42.259 4.57 83.219 16.202 120.838 32.404-28.557-41.44-64.25-78.362-105.203-108.17z" />
<glyph unicode="&#xe913;" glyph-name="icon-star-big" d="M231.206 329.062l-76.288-330.342c-4.71-20.429 3.482-41.677 20.787-53.606 8.755-6.042 18.893-9.114 29.082-9.114 9.882 0 19.814 2.867 28.416 8.602l278.784 185.856 278.782-185.856c17.818-11.878 41.216-11.418 58.624 1.229 17.306 12.646 24.934 34.816 19.046 55.398l-93.645 327.68 232.243 208.998c15.206 13.722 20.787 35.123 14.234 54.477-6.605 19.354-24.064 32.973-44.442 34.611l-291.891 23.245-126.31 279.603c-8.243 18.381-26.522 30.157-46.641 30.157-20.122 0-38.4-11.776-46.643-30.157l-126.31-279.603-291.891-23.194c-20.070-1.587-37.325-14.746-44.083-33.638-6.861-18.893-1.946-40.038 12.39-54.067l215.757-210.278zM377.279 550.554c18.586 1.485 34.97 12.954 42.598 30.003l92.109 203.827 92.107-203.827c7.629-17.050 24.013-28.518 42.598-30.003l203.366-16.128-167.475-150.733c-14.541-13.107-20.326-33.28-15.002-52.122l64.154-224.512-191.283 127.539c-17.203 11.52-39.576 11.52-56.779 0l-199.885-133.274 53.76 232.755c3.994 17.408-1.331 35.686-14.131 48.128l-155.546 151.654 209.408 16.691z" />
<glyph unicode="&#xe914;" glyph-name="icon-user" d="M309.815 691.2c0-105.856 97.188-192 216.618-192 119.424 0 216.612 86.144 216.612 192s-97.188 192-216.612 192c-119.43 0-216.618-86.144-216.618-192zM911.524 72.535h48.138v42.665c0 164.649-151.199 298.666-336.957 298.666h-192.547c-185.808 0-336.957-134.018-336.957-298.666v-42.665h818.324z" />
<glyph unicode="&#xe915;" glyph-name="icon-faq-big" d="M419.19 599.612v-2.677h-48.181c-0.89 5.801-1.783 11.6-1.783 18.292 0 23.644 9.813 45.503 35.243 64.685l21.412 16.060c13.383 9.815 19.184 21.859 19.184 35.243 0 20.521-14.724 40.15-44.611 40.15-31.673 0-45.504-25.428-45.504-50.41 0-5.353 0.445-10.26 1.783-14.276l-56.208 2.231c-1.784 6.246-2.231 13.383-2.231 20.075 0 48.18 36.135 94.575 102.16 94.575 69.145 0 105.281-43.718 105.281-88.775 0-35.243-17.846-60.225-44.166-78.961l-18.291-12.937c-15.614-11.153-24.089-24.982-24.089-43.274zM431.68 532.25c0-19.629-16.059-35.24-35.688-35.24s-35.243 15.611-35.243 35.24c0 19.629 15.614 35.688 35.243 35.688s35.688-16.059 35.688-35.688zM967.496 734.012h-98.869v-444.909h-642.648v-98.869c0-27.189 22.246-49.434 49.434-49.434h543.779l197.738-197.738v741.515c0 27.189-22.246 49.434-49.434 49.434zM769.758 437.407v444.909c0 27.189-22.246 49.435-49.434 49.435h-642.648c-27.189 0-49.434-22.246-49.434-49.435v-692.081l197.738 197.738h494.345c27.189 0 49.434 22.246 49.434 49.434z" />
<glyph unicode="&#xe916;" glyph-name="icon-products" d="M1.756 312.054c3.482-13.107 12.032-24.32 23.808-31.078l97.792-56.525v-112.589c0-28.262 22.886-51.2 51.2-51.2h112.589l56.525-97.792c6.81-11.725 18.022-20.326 31.13-23.859 4.352-1.126 8.755-1.741 13.21-1.741 8.909 0 17.766 2.304 25.651 6.861l97.69 56.525 97.792-56.525c11.725-6.81 25.754-8.602 38.861-5.12s24.32 12.083 31.078 23.859l56.474 97.741h112.589c28.314 0 51.2 22.938 51.2 51.2v112.589l97.792 56.525c24.474 14.131 32.87 45.466 18.688 69.939l-56.525 97.743 56.525 97.69c14.131 24.474 5.734 55.808-18.688 69.939l-97.792 56.525v112.64c0 28.262-22.886 51.2-51.2 51.2h-112.589l-56.474 97.741c-6.81 11.776-18.022 20.326-31.078 23.859-13.107 3.584-27.085 1.69-38.861-5.12l-97.792-56.525-97.741 56.525c-24.474 14.234-55.808 5.786-69.939-18.688l-56.525-97.792h-112.589c-28.314 0-51.2-22.938-51.2-51.2v-112.589l-97.792-56.525c-11.776-6.81-20.326-18.022-23.808-31.13-3.533-13.107-1.69-27.085 5.12-38.861l56.525-97.69-56.525-97.692c-6.81-11.776-8.653-25.754-5.12-38.861zM166.825 474.257l-45.67 79.002 79.053 45.722c15.821 9.165 25.549 26.061 25.549 44.339v90.88h90.931c18.278 0 35.226 9.728 44.339 25.6l45.67 79.002 79.053-45.67c15.821-9.165 35.379-9.165 51.2 0l79.104 45.67 45.619-79.002c9.165-15.872 26.061-25.6 44.339-25.6h90.931v-90.931c0-18.278 9.728-35.174 25.549-44.339l79.053-45.722-45.722-79.002c-9.165-15.872-9.165-35.381 0-51.253l45.722-79.002-79.053-45.722c-15.821-9.165-25.549-26.061-25.549-44.339v-90.931h-90.931c-18.278 0-35.226-9.728-44.339-25.6l-45.619-79.002-79.104 45.722c-7.885 4.557-16.742 6.861-25.6 6.861s-17.715-2.304-25.651-6.861l-79.002-45.722-45.67 79.002c-9.165 15.821-26.061 25.6-44.339 25.6h-90.931v90.931c0 18.278-9.728 35.174-25.549 44.339l-79.053 45.722 45.722 79.002c9.165 15.872 9.165 35.432-0.051 51.304z" />
<glyph unicode="&#xe917;" glyph-name="icon-search" d="M749.919 251.865l264.382-260.152c12.939-12.741 12.939-33.419-0.029-46.16-12.932-12.734-33.924-12.734-46.855 0l-265.413 261.186c-74.067-59.121-168.363-94.683-271.173-94.683-237.949 0-430.83 189.806-430.83 423.974s192.881 423.971 430.83 423.971c237.949 0 430.83-189.804 430.866-423.971 0-109.466-42.54-208.945-111.777-284.164zM66.289 536.029c0-198.128 163.21-358.738 364.54-358.738 201.332 0 364.54 160.61 364.54 358.738s-163.208 358.741-364.54 358.741c-201.331 0-364.54-160.613-364.54-358.741z" />
<glyph unicode="&#xe918;" glyph-name="icon-instagram" d="M938.773 741.427c-25.112 63.029-76.246 112.869-140.981 137.215-37.424 13.711-76.993 21.062-117.043 21.896-51.561 2.19-67.891 2.815-198.642 2.815s-147.51 0-198.643-2.815c-39.943-0.782-79.511-8.133-116.937-21.896-64.787-24.346-115.92-74.186-140.977-137.215-14.082-36.494-21.631-74.968-22.434-113.964-2.302-50.153-2.998-66.053-2.998-193.415 0-127.312 0-143.521 2.998-193.414 0.803-38.996 8.353-77.475 22.434-114.019 25.111-62.976 76.244-112.815 141.031-137.216 37.266-14.179 76.833-22.209 116.99-23.456 51.561-2.193 67.892-2.867 198.643-2.867s147.51 0 198.643 2.867c39.996 0.777 79.565 8.186 117.043 21.841 64.735 24.45 115.869 74.24 140.975 137.27 14.083 36.491 21.637 74.963 22.438 113.959 2.301 50.152 3 66.054 3 193.418 0 127.362 0 143.523-3 193.415-0.699 39.517-8.192 78.669-22.54 115.58zM873.556 244.489c-0.373-30.027-5.945-59.796-16.649-87.998-16.336-41.032-49.586-73.457-91.666-89.202-28.648-10.373-58.844-15.8-89.419-16.215-50.863-2.295-65.211-2.867-195.642-2.867-130.537 0-143.868 0-195.698 2.867-30.466 0.367-60.771 5.843-89.362 16.215-42.245 15.691-75.709 48.116-92.040 89.202-10.495 27.835-16.17 57.29-16.652 87.010-2.302 49.525-2.838 63.494-2.838 190.494 0 127.049 0 140.030 2.838 190.548 0.375 30.029 5.943 59.745 16.652 87.95 16.33 41.133 49.794 73.508 92.040 89.252 28.591 10.322 58.896 15.796 89.362 16.214 50.919 2.241 65.215 2.867 195.698 2.867 130.486 0 143.87 0 195.642-2.867 30.575-0.365 60.771-5.839 89.419-16.214 42.080-15.797 75.33-48.224 91.666-89.252 10.493-27.84 16.167-57.295 16.649-87.011 2.301-49.579 2.891-63.498 2.891-190.548 0-126.999 0-140.654-2.301-190.493h-0.59v0.048zM796.937 684.288c0-31.038-25.841-56.2-57.717-56.2s-57.717 25.161-57.717 56.2c0 31.039 25.841 56.2 57.717 56.2s57.717-25.161 57.717-56.2zM234.312 434.412c0 133.097 110.779 241.013 247.527 241.013 136.638 0 247.525-107.916 247.525-241.013 0-133.151-110.887-241.063-247.525-241.063-136.748 0-247.527 107.912-247.527 241.063zM320.997 434.36c0-86.435 72.015-156.555 160.842-156.555s160.732 70.12 160.732 156.555c0 86.489-71.906 156.557-160.732 156.557s-160.842-70.068-160.842-156.557z" />
</font>
</defs>
</svg>
