<svg width="354" height="215" fill="none" xmlns="http://www.w3.org/2000/svg"><path d="M353 36l-54.777 155.294L165 285l54.789-155.257 78.434-55.197L353 36z" fill="#51BAAB" stroke="#369D91"/><path d="M299 1v74.98l-78.891 54.82L165 285V94.105l79.341-55.144L299 1z" fill="#369D91"/><path d="M236.585 15.181L245 38.97l-78.698 55.136V285l-32.917-92.844-29.745-83.87C98.683 94.266 82.658 90.659 72 97.464l132.932-93.13c10.658-6.804 26.671-3.197 31.653 10.847z" fill="#51BAAB" stroke="#369D91"/><path d="M134 192.093L0 285l63.366-176.833a20.949 20.949 0 018.571-10.829c10.776-6.81 26.965-3.2 31.99 10.829L134 192.093z" fill="#369D91"/></svg>