<svg width="223" height="40" fill="none" xmlns="http://www.w3.org/2000/svg"><path d="M49.546 5.296l-7.671 21.636-18.658 13.056 7.673-21.631 10.985-7.69 7.671-5.371z" fill="#51BAAB"/><path d="M41.875.148v10.519l-10.985 7.69-7.673 21.631V13.21l11.047-7.735 7.61-5.326z" fill="#369D91"/><path d="M33.08 2.136l1.18 3.338-11.043 7.735v26.783l-4.619-13.026-4.174-11.767c-.695-1.967-2.944-2.473-4.44-1.518L28.638.614c1.496-.954 3.743-.448 4.442 1.522z" fill="#287068"/><path d="M18.598 26.964L0 39.99l8.795-24.793a2.932 2.932 0 011.19-1.518c1.495-.955 3.742-.45 4.44 1.518l4.173 11.767z" fill="#1A4540"/><path fill-rule="evenodd" clip-rule="evenodd" d="M67.313 8.044h4.696l9.148 23.894h-5.42l-1.68-5h-8.752l-1.672 5h-5.417l9.097-23.894zm2.353 6.092L66.7 23.06h5.964l-2.997-8.924z" fill="#fff"/><path fill="#fff" d="M117.513 7.018h4.906v25.224h-4.906z"/><path fill-rule="evenodd" clip-rule="evenodd" d="M149.802 20.482v7.452c0 1.672.208 2.893.687 3.95v.358h-4.906l-.548-1.485-.259.243c-1.087 1.047-2.508 1.581-4.228 1.581-2.583 0-4.722-1.196-5.729-3.194a4.69 4.69 0 01-.452-2.14c0-4.85 4.551-5.867 8.369-5.867h2.087v-.932c0-1.686-.879-2.543-2.609-2.543a4 4 0 00-2.842 1.242l-3.36-2.343c.249-.294.525-.565.823-.809 1.455-1.13 3.41-1.728 5.648-1.728 3.36 0 5.691 1.21 6.76 3.51.369.716.559 1.623.559 2.705zm-5.016 6.75l.035-.049v-2.876h-1.924c-2.417 0-3.634.862-3.634 2.567 0 1.132.956 1.923 2.337 1.923 1.381 0 2.574-.583 3.186-1.565zm28.48-12.965c5.099 0 8.021 3.177 8.021 8.742l-.012 2.047h-11.531l.051.254c.374 2.089 1.944 3.285 4.306 3.285 1.57 0 2.802-.453 3.763-1.38l2.986 2.087v.013c-1.076 1.493-3.18 3.266-7.08 3.266-4.017 0-7.073-1.92-8.379-5.27a8.788 8.788 0 01-.629-3.274v-.654c0-4.028 1.805-7.108 4.96-8.454a9.058 9.058 0 013.544-.662zm-3.445 7.382h6.631v-.344c0-1.969-1.148-3.05-3.221-3.05-1.859 0-3.021 1.087-3.354 3.146l-.056.248zm25.353-5.479V7.019l4.911.02v25.218h-4.028l-.668-1.79-.274.275c-1.192 1.266-2.562 1.854-4.322 1.854a6.402 6.402 0 01-5.24-2.553c-1.202-1.59-1.865-3.863-1.865-6.4v-.348c0-4.078 1.461-7.043 4.119-8.365a6.81 6.81 0 013.021-.663c1.6 0 2.906.501 3.982 1.545l.364.36zm-3.155 12.428c1.456 0 2.508-.587 3.13-1.754l.016-6.764-.021-.08c-.649-1.177-1.635-1.72-3.096-1.72-1.58 0-3.464.868-3.464 5.005v.348c0 3.296 1.157 4.965 3.435 4.965z" fill="#fff"/><path d="M222.608 14.532l-.093 4.73c-.59-.08-1.184-.13-1.78-.149-1.805 0-2.853.51-3.513 1.703l-.024.03v11.446h-4.903v-17.64h4.021l.71 2.002.348-.475c.934-1.236 2.165-1.864 3.652-1.864a6.5 6.5 0 011.582.217zm-96.112.94h4.91v16.77h-4.91zm4.911-4.8a2.456 2.456 0 11-4.911.007 2.456 2.456 0 014.911-.007zm72.329 4.849h4.91v16.77h-4.91zm4.909-4.801a2.455 2.455 0 11-2.457-2.483 2.467 2.467 0 012.457 2.483zm-100.12 4.752h4.91v16.77h-4.91zm4.91-4.8a2.467 2.467 0 11-2.463-2.463 2.457 2.457 0 012.463 2.463zm49.457 17.981v4.281c-.28.021-.582.032-.887.032-5.141 0-7.967-2.573-7.967-7.244v-7.508h-2.657V14.61h2.657v-3.652l4.919-3.445v7.097h3.554v3.605h-3.554v7.508c0 1.953 1.126 2.946 3.356 2.946.16 0 .37 0 .579-.015zM101.87 13.607v.696h3.56v3.608h-3.56v14.027h-4.915V17.915h-2.658v-3.609h2.658v-.695c0-4.672 2.831-7.244 7.965-7.244.174 0 .348 0 .51.016v4.283h-.213c-2.215 0-3.347.988-3.347 2.941zm-13.136 0v.696h3.555v3.608h-3.555v14.027h-4.92V17.915h-2.657v-3.609h2.657v-.695c0-4.672 2.831-7.244 7.97-7.244.174 0 .348 0 .505.016v4.283h-.2c-2.228 0-3.355.988-3.355 2.941z" fill="#fff"/></svg>