<svg width="87" height="42" fill="none" xmlns="http://www.w3.org/2000/svg"><path fill-rule="evenodd" clip-rule="evenodd" d="M21 42h44.034c11.58 0 21-9.42 21-21s-9.42-21-21-21H21C9.42 0 0 9.42 0 21s9.42 21 21 21zM1.808 21c0-10.582 8.61-19.191 19.192-19.191h44.034c10.583 0 19.192 8.609 19.192 19.191 0 10.582-8.61 19.191-19.192 19.191H21C10.418 40.191 1.808 31.582 1.808 21z" fill="#D1A643"/><path d="M17.28 8.9c.832 0 1.705.37 2.274.955l-.758.923c-.396-.453-.962-.75-1.5-.75-.988 0-1.754.766-1.754 1.771s.766 1.779 1.755 1.779c.518 0 1.087-.264 1.499-.676l.766.832c-.61.627-1.491 1.03-2.33 1.03-1.722 0-3.024-1.276-3.024-2.948 0-1.664 1.326-2.917 3.072-2.917z" fill="#fff"/><path fill-rule="evenodd" clip-rule="evenodd" d="M23.704 8.94H22.36l-2.504 5.767H21.2l.453-1.12h2.67l.452 1.12h1.394L23.704 8.94zm-.71 1.36l.907 2.24H22.08l.914-2.24zm6.454-1.36h-2.504l.002 5.767h1.3v-1.648h1.326l.914 1.648h1.474l-1.227-1.903c.7-.33 1.08-.972 1.08-1.862 0-1.277-.858-2.002-2.365-2.002zm1.129 2.043c0 .66-.412.989-1.13.989h-1.202V10.02h1.203c.716 0 1.129.321 1.129.963zm4.778-2.043h-2.448v5.767h2.398c1.821 0 3.081-1.186 3.081-2.884 0-1.705-1.243-2.883-3.031-2.883zm1.704 2.892c0 1.054-.709 1.78-1.672 1.78h-1.178v-3.576h1.12c.988 0 1.73.733 1.73 1.796zm4.629-2.892H39.24l.002 5.767h1.3v-1.648h1.145c1.466 0 2.306-.773 2.306-2.117 0-1.277-.84-2.002-2.306-2.002zm1.07 2.043c0 .66-.412.989-1.137.989h-1.079V10.02h1.08c.724 0 1.136.321 1.136.963z" fill="#fff"/><path d="M44.825 8.94h1.3v4.63h2.471v1.137h-3.772l.001-5.767z" fill="#fff"/><path fill-rule="evenodd" clip-rule="evenodd" d="M53.197 8.94h-1.344l-2.503 5.767h1.344l.453-1.12h2.67l.452 1.12h1.392L53.197 8.94zm-.71 1.36l.906 2.24h-1.82l.914-2.24z" fill="#fff"/><path d="M56.474 8.94l1.474 2.587L59.39 8.94h1.31l-2.101 3.905v1.862h-1.3v-1.83L55.166 8.94h1.308zm4.835 0h4.39v1.08h-3.088v1.252h2.785v1.079H62.61v1.276h3.182v1.08h-4.481l-.003-5.767z" fill="#fff"/><path fill-rule="evenodd" clip-rule="evenodd" d="M69.315 8.94h-2.504v5.767h1.3v-1.648h1.326l.914 1.648h1.477L70.6 12.804c.7-.33 1.08-.972 1.08-1.862 0-1.277-.858-2.002-2.365-2.002zm1.128 2.043c0 .66-.411.989-1.128.989h-1.204V10.02h1.204c.716 0 1.128.321 1.128.963z" fill="#fff"/><path d="M34.817 20.526l-2.038-2.038-2.04 2.038a1.243 1.243 0 001.757 1.757l.281-.281.281.28a1.243 1.243 0 001.759-1.756z" fill="#fff"/><path d="M32.777 22.497s-.286.723-.973 1.068h1.946c-.686-.345-.973-1.068-.973-1.068z" fill="#fff"/><path d="M51.217 20.993l2.04 2.039 2.038-2.039a1.242 1.242 0 10-1.757-1.757l-.28.28-.281-.28a1.242 1.242 0 00-1.76 1.757z" fill="#D1A643"/><path d="M48.5 21.293a1.115 1.115 0 01-2.18.337 1.117 1.117 0 11-.841-1.43 1.064 1.064 0 111.684 0 1.12 1.12 0 011.336 1.094z" fill="#fff"/><path d="M46.319 22.494s-.287.724-.975 1.07h1.95c-.688-.346-.975-1.07-.975-1.07z" fill="#fff"/><path d="M41.783 21.033l-.006-.006.006-.007h-.013c-1.063-1.067-2.109-2.528-2.11-2.532-.004.004-1.049 1.465-2.112 2.532h-.013l.006.007-.006.006h.015c1.063 1.067 2.106 2.528 2.111 2.532.003-.004 1.048-1.465 2.111-2.532h.011zm17.374-.61h17.045v1.206H59.157zm-49.324 0h17.045v1.206H9.833z" fill="#D1A643"/><path d="M21.82 27.345h1.29v4.588h2.448v1.126H21.82v-5.714zm4.506 0h1.29v5.714h-1.29v-5.714zm2.554 0h4.107l-.007 1.07h-2.81v1.403h2.58v1.076h-2.58v2.163h-1.29v-5.712zm4.858 0h4.35v1.07h-3.06v1.24h2.759v1.07h-2.759v1.265h3.15v1.07h-4.44v-5.715zm5.502 3.797c.588.523 1.42.857 2.025.857.53 0 .851-.195.851-.547 0-1.075-3.047-.448-3.047-2.473 0-1.037.89-1.69 2.212-1.69.8 0 1.6.245 2.172.62l-.498 1.069c-.604-.359-1.323-.588-1.78-.588-.433 0-.726.155-.726.465 0 1.053 3.047.465 3.036 2.523 0 1.12-.971 1.722-2.236 1.722-.94 0-1.878-.358-2.523-.906l.514-1.052zm4.588-3.797h4.776v1.094h-1.748v4.62h-1.29v-4.62h-1.738v-1.094zm6.647 0l1.462 2.563 1.428-2.563h1.3l-2.082 3.87v1.844h-1.29v-1.812l-2.114-3.902h1.296zm4.792 0h1.29v4.588h2.45v1.126h-3.74v-5.714zm4.509 0h4.351v1.07h-3.061v1.24h2.759v1.07h-2.76v1.265h3.152v1.07h-4.441v-5.715z" fill="#fff"/></svg>