<svg width="174" height="30" fill="none" xmlns="http://www.w3.org/2000/svg"><path d="M37.16 3.862L31.406 20.09l-13.993 9.79 5.755-16.223 8.238-5.768 5.754-4.028z" fill="#51BAAB"/><path d="M31.406.001V7.89l-8.238 5.768-5.755 16.223V9.797l8.285-5.802L31.406.001z" fill="#369D91"/><path d="M24.81 1.492l.886 2.503-8.283 5.802v20.087l-3.464-9.77-3.13-8.825c-.523-1.475-2.209-1.855-3.33-1.139l13.99-9.8C22.6-.364 24.286.015 24.81 1.493z" fill="#287068"/><path d="M13.949 20.113L0 29.883l6.596-18.595a2.2 2.2 0 01.892-1.139c1.122-.716 2.807-.336 3.33 1.139l3.13 8.825z" fill="#1A4540"/><path fill-rule="evenodd" clip-rule="evenodd" d="M50.485 5.923h3.521l6.861 17.92h-4.064l-1.26-3.75h-6.565l-1.253 3.75h-4.063l6.823-17.92zm1.764 4.57l-2.225 6.692h4.473l-2.248-6.693z" fill="#070C0B"/><path fill="#070C0B" d="M88.135 5.153h3.68v18.918h-3.68z"/><path fill-rule="evenodd" clip-rule="evenodd" d="M112.351 15.252v5.589c0 1.253.157 2.169.515 2.962v.269h-3.679l-.411-1.114-.194.182c-.816.786-1.881 1.186-3.171 1.186-1.937 0-3.541-.897-4.297-2.396a3.528 3.528 0 01-.339-1.604c0-3.638 3.414-4.401 6.277-4.401h1.565v-.7c0-1.263-.659-1.906-1.957-1.906a3 3 0 00-2.131.931l-2.52-1.757c.187-.22.393-.424.617-.607 1.092-.847 2.558-1.296 4.237-1.296 2.52 0 4.267.908 5.07 2.632.276.538.418 1.218.418 2.03zm-3.761 5.062l.026-.037V18.12h-1.443c-1.813 0-2.726.647-2.726 1.925 0 .85.717 1.443 1.753 1.443s1.93-.437 2.39-1.174zm21.36-9.724c3.824 0 6.015 2.383 6.015 6.557l-.009 1.535h-8.648l.038.19c.281 1.567 1.458 2.465 3.23 2.465 1.177 0 2.101-.34 2.822-1.036l2.24 1.565v.01c-.808 1.12-2.386 2.45-5.31 2.45-3.013 0-5.305-1.44-6.285-3.952a6.62 6.62 0 01-.472-2.456v-.49c0-3.022 1.354-5.332 3.72-6.341a6.797 6.797 0 012.659-.497zm-2.584 5.537h4.973v-.258c0-1.477-.861-2.288-2.416-2.288-1.394 0-2.265.815-2.516 2.36l-.041.186zm19.015-4.109V5.153l3.683.016v18.913h-3.021l-.501-1.342-.206.206c-.893.95-1.921 1.39-3.241 1.39a4.8 4.8 0 01-3.93-1.914c-.901-1.192-1.398-2.897-1.398-4.8v-.261c0-3.059 1.095-5.283 3.088-6.274a5.111 5.111 0 012.266-.497c1.2 0 2.18.376 2.987 1.158l.273.27zm-2.367 9.321c1.092 0 1.881-.44 2.348-1.316l.012-5.073-.016-.06c-.486-.883-1.226-1.29-2.321-1.29-1.186 0-2.599.651-2.599 3.754v.261c0 2.472.868 3.724 2.576 3.724z" fill="#070C0B"/><path d="M166.956 10.79l-.07 3.547c-.442-.06-.888-.098-1.334-.112-1.354 0-2.141.382-2.635 1.277l-.018.022v8.586h-3.677V10.88h3.015l.533 1.5.26-.355c.701-.928 1.624-1.399 2.74-1.399.4.006.799.06 1.186.164zm-72.084.704h3.682v12.578h-3.682zm3.683-3.6a1.842 1.842 0 11-3.683.005 1.842 1.842 0 013.683-.005zm54.247 3.636h3.682v12.578h-3.682zm3.682-3.6a1.842 1.842 0 11-1.843-1.862 1.85 1.85 0 011.843 1.862zm-75.09 3.564h3.682v12.578h-3.682zm3.682-3.6a1.85 1.85 0 11-1.847-1.847 1.843 1.843 0 011.847 1.847zm37.093 13.486v3.21c-.21.017-.437.024-.665.024-3.856 0-5.975-1.929-5.975-5.432V13.55h-1.993v-2.704h1.993v-2.74l3.688-2.583v5.323h2.666v2.704h-2.666v5.63c0 1.465.846 2.21 2.518 2.21.12 0 .278 0 .434-.011zM76.402 10.096v.521h2.67v2.707h-2.67v10.52h-3.686V13.325h-1.993V10.62h1.993v-.522c0-3.503 2.124-5.432 5.974-5.432.13 0 .261 0 .382.011V7.89h-.159c-1.662 0-2.51.74-2.51 2.206zm-9.852 0v.521h2.666v2.707H66.55v10.52h-3.69V13.325h-1.993V10.62h1.993v-.522c0-3.503 2.124-5.432 5.978-5.432.13 0 .26 0 .378.011V7.89h-.15c-1.67 0-2.516.74-2.516 2.206z" fill="#070C0B"/></svg>