<svg width="354" height="215" viewBox="0 0 354 215" fill="none" xmlns="http://www.w3.org/2000/svg">
<path d="M353 36L298.223 191.294L165 285L219.789 129.743L298.223 74.5458L353 36Z" fill="#51BAAB" stroke="#369D91"/>
<path d="M299 1V75.9796L220.109 130.801L165 285V94.1046L244.341 38.9609L299 1Z" fill="#369D91"/>
<path d="M236.585 15.1812L245 38.9687L166.302 94.1051V285L133.385 192.156L103.64 108.286C98.6831 94.2663 82.6584 90.6591 72 97.4644L204.932 4.33494C215.59 -2.47034 231.603 1.13683 236.585 15.1812Z" fill="#51BAAB" stroke="#369D91"/>
<path d="M134 192.093L0 285L63.3662 108.167C64.9078 103.704 67.9282 99.8876 71.937 97.338C82.7131 90.5282 98.9024 94.1378 103.927 108.167L134 192.093Z" fill="#369D91"/>
</svg>
