<svg width="174" height="30" viewBox="0 0 174 30" fill="none" xmlns="http://www.w3.org/2000/svg">
<path d="M37.1596 3.86217L31.4061 20.0896L17.4131 29.8813L23.1679 13.6578L31.4061 7.89L37.1596 3.86217Z" fill="#51BAAB"/>
<path d="M31.4061 0.00130463V7.89L23.1679 13.6578L17.4131 29.8813V9.79696L25.6983 3.99522L31.4061 0.00130463Z" fill="#369D91"/>
<path d="M24.81 1.49217L25.6957 3.99521L17.4131 9.79695V29.8839L13.9487 20.1143L10.8183 11.2891C10.2965 9.81391 8.61002 9.43434 7.48828 10.1504L21.4787 0.350866C22.6005 -0.365221 24.2857 0.0143443 24.81 1.49217Z" fill="#287068"/>
<path d="M13.9487 20.113L0 29.8826L6.59609 11.2878C6.75656 10.8185 7.07097 10.4172 7.48826 10.1491C8.61 9.43304 10.2952 9.81261 10.8183 11.2878L13.9487 20.113Z" fill="#1A4540"/>
<path fill-rule="evenodd" clip-rule="evenodd" d="M50.4847 5.92304H54.0064L60.8673 23.8435H56.8029L55.5429 20.0935H48.9781L47.7247 23.8435H43.6616L50.4847 5.92304ZM52.2494 10.4922L50.0242 17.1848H54.4968L52.2494 10.4922Z" fill="#070C0B"/>
<rect x="88.1348" y="5.15348" width="3.67957" height="18.9183" fill="#070C0B"/>
<path fill-rule="evenodd" clip-rule="evenodd" d="M112.351 15.2517V20.8409C112.351 22.0943 112.508 23.01 112.866 23.803V24.0717H109.187L108.776 22.9578L108.582 23.1404C107.766 23.9256 106.701 24.3261 105.411 24.3261C103.474 24.3261 101.87 23.4287 101.114 21.93C100.877 21.4293 100.76 20.8797 100.775 20.3256C100.775 16.6878 104.189 15.9248 107.052 15.9248H108.617V15.2256C108.617 13.9617 107.958 13.3187 106.66 13.3187C105.854 13.3299 105.085 13.6656 104.529 14.25L102.009 12.493C102.196 12.2726 102.402 12.0695 102.626 11.8865C103.718 11.0387 105.184 10.59 106.863 10.59C109.383 10.59 111.13 11.4978 111.933 13.2222C112.209 13.7596 112.351 14.4404 112.351 15.2517ZM108.59 20.3139L108.616 20.2774V18.12H107.173C105.36 18.12 104.447 18.767 104.447 20.0452C104.447 20.8943 105.164 21.4878 106.2 21.4878C107.236 21.4878 108.13 21.0509 108.59 20.3139Z" fill="#070C0B"/>
<path fill-rule="evenodd" clip-rule="evenodd" d="M129.95 10.59C133.774 10.59 135.965 12.973 135.965 17.147L135.956 18.6822H127.308L127.346 18.8726C127.627 20.4391 128.804 21.3365 130.576 21.3365C131.753 21.3365 132.677 20.9961 133.398 20.3009L135.638 21.8661V21.8765C134.83 22.9957 133.252 24.3261 130.328 24.3261C127.315 24.3261 125.023 22.8861 124.043 20.3739C123.731 19.5929 123.571 18.7592 123.571 17.9178V17.4274C123.571 14.4065 124.925 12.0965 127.291 11.087C128.135 10.7449 129.039 10.5759 129.95 10.59ZM127.366 16.127H132.339V15.8687C132.339 14.3922 131.478 13.5809 129.923 13.5809C128.529 13.5809 127.658 14.3961 127.407 15.9404L127.366 16.127Z" fill="#070C0B"/>
<path fill-rule="evenodd" clip-rule="evenodd" d="M146.381 12.0183V5.15348L150.064 5.16913V24.0822H147.043L146.542 22.74L146.336 22.9461C145.443 23.8957 144.415 24.3365 143.095 24.3365C141.553 24.3663 140.091 23.654 139.165 22.4217C138.264 21.2296 137.767 19.5248 137.767 17.6217V17.3609C137.767 14.3022 138.862 12.0783 140.855 11.087C141.562 10.7498 142.338 10.5798 143.121 10.59C144.321 10.59 145.301 10.9657 146.108 11.7483L146.381 12.0183ZM144.014 21.3391C145.106 21.3391 145.895 20.8983 146.362 20.023L146.374 14.9504L146.358 14.8904C145.872 14.0074 145.132 13.6004 144.037 13.6004C142.851 13.6004 141.438 14.2513 141.438 17.3544V17.6152C141.438 20.087 142.306 21.3391 144.014 21.3391Z" fill="#070C0B"/>
<path d="M166.956 10.7896L166.886 14.3374C166.444 14.2767 165.998 14.2393 165.552 14.2252C164.198 14.2252 163.411 14.6074 162.917 15.5022L162.899 15.5244V24.1096H159.222V10.8796H162.237L162.77 12.3809L163.03 12.0248C163.731 11.0974 164.654 10.6265 165.77 10.6265C166.17 10.6317 166.569 10.6864 166.956 10.7896Z" fill="#070C0B"/>
<rect x="94.8716" y="11.4939" width="3.68217" height="12.5778" fill="#070C0B"/>
<path d="M98.5551 7.89391C98.5565 8.91108 97.7331 9.73682 96.7159 9.73826C95.6988 9.7397 94.873 8.91629 94.8716 7.89913C94.8701 6.88197 95.6935 6.05622 96.7107 6.05478C97.1993 6.05374 97.6682 6.24701 98.0142 6.59199C98.3601 6.93697 98.5547 7.40535 98.5551 7.89391Z" fill="#070C0B"/>
<rect x="152.802" y="11.5304" width="3.68217" height="12.5778" fill="#070C0B"/>
<path d="M156.484 7.93043C156.473 8.94463 155.643 9.75866 154.629 9.75125C153.615 9.74385 152.797 8.91781 152.801 7.90356C152.804 6.8893 153.627 6.06861 154.641 6.06783C155.133 6.06989 155.603 6.26742 155.949 6.61684C156.295 6.96627 156.487 7.43888 156.484 7.93043Z" fill="#070C0B"/>
<rect x="81.394" y="11.4939" width="3.68217" height="12.5778" fill="#070C0B"/>
<path d="M85.0761 7.89391C85.0772 8.64247 84.6269 9.31785 83.9356 9.60479C83.2442 9.89174 82.448 9.73367 81.9187 9.20436C81.3894 8.67505 81.2313 7.87889 81.5183 7.18752C81.8052 6.49615 82.4806 6.0459 83.2292 6.04696C83.7193 6.04591 84.1897 6.24017 84.5363 6.58677C84.8829 6.93336 85.0772 7.40375 85.0761 7.89391Z" fill="#070C0B"/>
<path d="M122.169 21.3796V24.5909C121.959 24.6065 121.732 24.6143 121.504 24.6143C117.648 24.6143 115.529 22.6852 115.529 19.1817V13.5509H113.536V10.847H115.529V8.10782L119.217 5.52391V10.847H121.883V13.5509H119.217V19.1817C119.217 20.6465 120.063 21.3913 121.735 21.3913C121.855 21.3913 122.013 21.3913 122.169 21.3796Z" fill="#070C0B"/>
<path d="M76.4023 10.0956V10.6174H79.0723V13.3239H76.4023V23.8435H72.7162V13.3265H70.7231V10.62H72.7162V10.0983C72.7162 6.59478 74.8397 4.66565 78.6901 4.66565C78.8205 4.66565 78.951 4.66565 79.0723 4.67739V7.89H78.9131C77.2514 7.89 76.4023 8.63087 76.4023 10.0956Z" fill="#070C0B"/>
<path d="M66.5502 10.0956V10.6174H69.2163V13.3239H66.5502V23.8435H62.8602V13.3265H60.8672V10.62H62.8602V10.0983C62.8602 6.59478 64.9837 4.66565 68.8381 4.66565C68.9685 4.66565 69.0989 4.66565 69.2163 4.67739V7.89H69.0663C67.3954 7.89 66.5502 8.63087 66.5502 10.0956Z" fill="#070C0B"/>
</svg>
