<svg width="87" height="42" viewBox="0 0 87 42" fill="none" xmlns="http://www.w3.org/2000/svg">
<path fill-rule="evenodd" clip-rule="evenodd" d="M21 42H65.0344C76.6136 42 86.0343 32.5797 86.0343 21C86.0343 9.42031 76.6136 0 65.0344 0H21C9.42031 0 0 9.42076 0 21C0 32.5792 9.42031 42 21 42ZM1.8085 21C1.8085 10.4178 10.4178 1.80851 21 1.80851H65.0343C75.6166 1.80851 84.2258 10.4178 84.2258 21C84.2258 31.5822 75.6166 40.1915 65.0343 40.1915H21C10.4178 40.1915 1.8085 31.5822 1.8085 21Z" fill="#D1A643"/>
<path d="M17.2799 8.89941C18.1121 8.89941 18.985 9.27044 19.5536 9.8552L18.7959 10.7778C18.4002 10.3248 17.8342 10.0282 17.2965 10.0282C16.308 10.0282 15.5418 10.7944 15.5418 11.799C15.5418 12.8037 16.308 13.5775 17.2965 13.5775C17.8154 13.5775 18.3836 13.3141 18.7959 12.9023L19.5617 13.7339C18.9522 14.3613 18.0708 14.7645 17.2316 14.7645C15.51 14.7645 14.2083 13.4879 14.2083 11.8156C14.2074 10.1518 15.5337 8.89941 17.2799 8.89941Z" fill="white"/>
<path fill-rule="evenodd" clip-rule="evenodd" d="M23.7043 8.94043H22.36L19.8561 14.707H21.2004L21.6534 13.5867H24.3222L24.7753 14.707H26.1688L23.7043 8.94043ZM22.9941 10.2999L23.9006 12.5404H22.08L22.9941 10.2999Z" fill="white"/>
<path fill-rule="evenodd" clip-rule="evenodd" d="M29.4479 8.94043H26.944L26.9458 14.707H28.2452V13.0593H29.5716L30.4857 14.707H31.9604L30.7331 12.8039C31.433 12.4746 31.8121 11.832 31.8121 10.9421C31.8121 9.66545 30.9553 8.94043 29.4479 8.94043ZM30.5767 10.9833C30.5767 11.6424 30.1649 11.9718 29.4479 11.9718H28.2452V10.0199H29.4479C30.1644 10.0199 30.5767 10.3412 30.5767 10.9833Z" fill="white"/>
<path fill-rule="evenodd" clip-rule="evenodd" d="M35.3547 8.94043H32.9072V14.707H35.3054C37.126 14.707 38.3861 13.5209 38.3861 11.8235C38.3861 10.1185 37.1426 8.94043 35.3547 8.94043ZM37.0588 11.832C37.0588 12.8864 36.3504 13.6114 35.3865 13.6114H34.2085V10.036H35.3287C36.3172 10.036 37.0588 10.7691 37.0588 11.832Z" fill="white"/>
<path fill-rule="evenodd" clip-rule="evenodd" d="M41.6877 8.94043H39.2411L39.2429 14.707H40.5424V13.0593H41.6877C43.1539 13.0593 43.994 12.2864 43.994 10.9421C43.994 9.66545 43.1539 8.94043 41.6877 8.94043ZM42.7582 10.9833C42.7582 11.6424 42.3464 11.9718 41.6214 11.9718H40.5424V10.0199H41.6214C42.3464 10.0199 42.7582 10.3412 42.7582 10.9833Z" fill="white"/>
<path d="M44.8253 8.94043H46.1248V13.5702H48.5965V14.707H44.8235L44.8253 8.94043Z" fill="white"/>
<path fill-rule="evenodd" clip-rule="evenodd" d="M53.197 8.94043H51.8527L49.3496 14.707H50.6939L51.1474 13.5867H53.8162L54.2693 14.707H55.6615L53.197 8.94043ZM52.4872 10.2999L53.3932 12.5404H51.5731L52.4872 10.2999Z" fill="white"/>
<path d="M56.474 8.94043L57.9482 11.5273L59.3897 8.94043H60.6995L58.5988 12.8451V14.707H57.2994V12.8778L55.1655 8.94043L56.474 8.94043Z" fill="white"/>
<path d="M61.3085 8.94043H65.6998V10.0199H62.6111V11.2719H65.3955V12.3509H62.6111V13.6275H65.7926V14.707H61.3116L61.3085 8.94043Z" fill="white"/>
<path fill-rule="evenodd" clip-rule="evenodd" d="M69.315 8.94043H66.811V14.707H68.1105V13.0593H69.4369L70.351 14.707H71.8275L70.6001 12.8039C71.3001 12.4746 71.6791 11.832 71.6791 10.9421C71.6791 9.66545 70.8224 8.94043 69.315 8.94043ZM70.4433 10.9833C70.4433 11.6424 70.032 11.9718 69.315 11.9718H68.1105V10.0199H69.315C70.0315 10.0199 70.4433 10.3412 70.4433 10.9833Z" fill="white"/>
<path d="M34.817 20.5258L32.7786 18.4883L30.7393 20.5258C30.2545 21.0111 30.2545 21.7974 30.7393 22.2828C31.2247 22.7676 32.011 22.7676 32.4963 22.2828L32.7773 22.0018L33.0582 22.2828C33.5436 22.7676 34.3299 22.7676 34.8152 22.2828C35.0485 22.05 35.1798 21.7342 35.1801 21.4046C35.1804 21.0751 35.0498 20.759 34.817 20.5258Z" fill="white"/>
<path d="M32.7773 22.4971C32.7773 22.4971 32.4909 23.2198 31.8044 23.5649H33.7501C33.0636 23.2198 32.7773 22.4971 32.7773 22.4971Z" fill="white"/>
<path d="M51.2174 20.993L53.2575 23.0319L55.295 20.993C55.5281 20.7601 55.659 20.4441 55.659 20.1146C55.659 19.785 55.5281 19.469 55.295 19.2361C55.0621 19.003 54.7461 18.8721 54.4165 18.8721C54.087 18.8721 53.771 19.003 53.538 19.2361L53.2575 19.5166L52.9766 19.2361C52.7436 19.003 52.4276 18.8721 52.0981 18.8721C51.7686 18.8721 51.4526 19.003 51.2196 19.2361C50.9863 19.4687 50.8549 19.7846 50.8545 20.1141C50.8541 20.4436 50.9846 20.7598 51.2174 20.993Z" fill="#D1A643"/>
<path d="M48.4992 21.293C48.5003 21.844 48.099 22.3132 47.5546 22.3975C47.0101 22.4818 46.4856 22.1559 46.3201 21.6304C46.1472 22.1766 45.5891 22.5033 45.0282 22.3867C44.4673 22.2701 44.0857 21.7479 44.1448 21.1781C44.204 20.6083 44.6848 20.1757 45.2577 20.1768C45.332 20.1767 45.4062 20.1842 45.479 20.1992C45.1412 19.7618 45.1943 19.1386 45.6014 18.7648C46.0085 18.3909 46.634 18.3909 47.0411 18.7648C47.4481 19.1386 47.5013 19.7618 47.1634 20.1992C47.2371 20.1841 47.3122 20.1766 47.3875 20.1768C48.0013 20.1815 48.497 20.6792 48.4992 21.293Z" fill="white"/>
<path d="M46.3187 22.4941C46.3187 22.4941 46.0319 23.2183 45.3441 23.5642H47.2938C46.606 23.2183 46.3187 22.4941 46.3187 22.4941Z" fill="white"/>
<path d="M41.7831 21.033L41.7768 21.0267L41.7831 21.02H41.7701C40.7068 19.9531 39.6614 18.4919 39.6591 18.4883C39.6564 18.4919 38.611 19.9531 37.5482 21.02H37.5352L37.5414 21.0267L37.5352 21.033H37.5504C38.6133 22.0999 39.6564 23.5612 39.6614 23.5648C39.6636 23.5612 40.709 22.0999 41.7723 21.033H41.7831Z" fill="#D1A643"/>
<rect x="59.1571" y="20.4229" width="17.0447" height="1.20583" fill="#D1A643"/>
<rect x="9.83252" y="20.4229" width="17.0447" height="1.20583" fill="#D1A643"/>
<path d="M21.8196 27.3447H23.1096V31.9328H25.5585V33.0593H21.8196V27.3447Z" fill="white"/>
<path d="M26.3256 27.3447H27.6156V33.0593H26.3256V27.3447Z" fill="white"/>
<path d="M28.8806 27.3447H32.987L32.9798 28.4143H30.1707V29.8182H32.7504V30.8936H30.1707V33.0571H28.8806V27.3447Z" fill="white"/>
<path d="M33.738 27.3447H38.0881V28.4143H35.0281V29.6551H37.787V30.7243H35.0281V31.9897H38.1778V33.0593H33.738V27.3447Z" fill="white"/>
<path d="M39.2402 31.1422C39.8281 31.6647 40.6607 31.999 41.2647 31.999C41.7953 31.999 42.1161 31.8036 42.1161 31.4523C42.1161 30.3769 39.0691 31.0042 39.0691 28.9788C39.0691 27.9419 39.9585 27.2891 41.2809 27.2891C42.0812 27.2891 42.881 27.5342 43.4528 27.9092L42.9545 28.9775C42.3509 28.619 41.6322 28.3896 41.1751 28.3896C40.7423 28.3896 40.4488 28.5446 40.4488 28.8552C40.4488 29.9082 43.4958 29.3203 43.4851 31.3775C43.4851 32.4977 42.514 33.1 41.2486 33.1C40.3098 33.1 39.3706 32.7415 38.7258 32.1939L39.2402 31.1422Z" fill="white"/>
<path d="M43.8278 27.3447H48.6036V28.439H46.856V33.0593H45.5668V28.439H43.8278V27.3447Z" fill="white"/>
<path d="M50.4753 27.3447L51.937 29.9083L53.3655 27.3447H54.665L52.5831 31.2145V33.0593H51.2931V31.2467L49.179 27.3447H50.4753Z" fill="white"/>
<path d="M55.2672 27.3447H56.5573V31.9328H59.0066V33.0593H55.2672V27.3447Z" fill="white"/>
<path d="M59.776 27.3447H64.127V28.4143H61.0656V29.6551H63.825V30.7243H61.0656V31.9897H64.2171V33.0593H59.776V27.3447Z" fill="white"/>
</svg>
