<svg width="223" height="40" viewBox="0 0 223 40" fill="none" xmlns="http://www.w3.org/2000/svg">
<path d="M49.546 5.2959L41.8747 26.9324L23.2173 39.9881L30.8903 18.3568L41.8747 10.6663L49.546 5.2959Z" fill="#51BAAB"/>
<path d="M41.8747 0.148438V10.6667L30.8903 18.3571L23.2173 39.9884V13.2093L34.2642 5.47365L41.8747 0.148438Z" fill="#369D91"/>
<path d="M33.08 2.13612L34.2609 5.47351L23.2174 13.2092V39.9918L18.5983 26.9657L14.4244 15.1987C13.7287 13.2318 11.48 12.7257 9.98438 13.6805L28.6383 0.614377C30.1339 -0.340406 32.3809 0.165681 33.08 2.13612Z" fill="#287068"/>
<path d="M18.5983 26.9637L0 39.9898L8.79478 15.1967C9.00874 14.571 9.42796 14.0359 9.98435 13.6785C11.48 12.7237 13.727 13.2298 14.4243 15.1967L18.5983 26.9637Z" fill="#1A4540"/>
<path fill-rule="evenodd" clip-rule="evenodd" d="M67.3132 8.04395H72.0089L81.1567 31.9379H75.7376L74.0576 26.9379H65.3045L63.6332 31.9379H58.2158L67.3132 8.04395ZM69.6662 14.1361L66.6993 23.0596H72.6628L69.6662 14.1361Z" fill="white"/>
<rect x="117.513" y="7.01758" width="4.90608" height="25.2243" fill="white"/>
<path fill-rule="evenodd" clip-rule="evenodd" d="M149.802 20.4823V27.9344C149.802 29.6057 150.01 30.8266 150.489 31.884V32.2423H145.583L145.035 30.757L144.776 31.0005C143.689 32.0475 142.268 32.5814 140.548 32.5814C137.965 32.5814 135.826 31.3849 134.819 29.3866C134.502 28.7191 134.347 27.9862 134.367 27.2475C134.367 22.397 138.918 21.3796 142.736 21.3796H144.823V20.4475C144.823 18.7623 143.944 17.9049 142.214 17.9049C141.138 17.9198 140.114 18.3674 139.372 19.1466L136.012 16.804C136.261 16.51 136.537 16.2393 136.835 15.9953C138.29 14.8649 140.245 14.2666 142.483 14.2666C145.843 14.2666 148.174 15.477 149.243 17.7762C149.612 18.4927 149.802 19.4005 149.802 20.4823ZM144.786 27.2318L144.821 27.1831V24.3066H142.897C140.48 24.3066 139.263 25.1692 139.263 26.8736C139.263 28.0057 140.219 28.797 141.6 28.797C142.981 28.797 144.174 28.2144 144.786 27.2318Z" fill="white"/>
<path fill-rule="evenodd" clip-rule="evenodd" d="M173.266 14.2667C178.365 14.2667 181.287 17.4441 181.287 23.0093L181.275 25.0563H169.744L169.795 25.3102C170.169 27.3989 171.739 28.5954 174.101 28.5954C175.671 28.5954 176.903 28.1415 177.864 27.2145L180.85 29.3015V29.3154C179.774 30.8076 177.67 32.5815 173.77 32.5815C169.753 32.5815 166.697 30.6615 165.391 27.3119C164.974 26.2705 164.761 25.1589 164.762 24.0371V23.3832C164.762 19.3554 166.567 16.2754 169.722 14.9293C170.847 14.4732 172.052 14.2479 173.266 14.2667ZM169.821 21.6493H176.452V21.305C176.452 19.3363 175.304 18.2545 173.231 18.2545C171.372 18.2545 170.21 19.3415 169.877 21.4006L169.821 21.6493Z" fill="white"/>
<path fill-rule="evenodd" clip-rule="evenodd" d="M195.174 16.1706V7.01758L200.085 7.03845V32.2558H196.057L195.389 30.4663L195.115 30.7411C193.923 32.0071 192.553 32.595 190.793 32.595C188.738 32.6346 186.788 31.6849 185.553 30.0419C184.351 28.4524 183.688 26.1793 183.688 23.6419V23.2941C183.688 19.2158 185.149 16.2506 187.807 14.9289C188.75 14.4793 189.783 14.2526 190.828 14.2663C192.428 14.2663 193.734 14.7671 194.81 15.8106L195.174 16.1706ZM192.019 28.5984C193.475 28.5984 194.527 28.0106 195.149 26.8437L195.165 20.0802L195.144 20.0002C194.495 18.8228 193.509 18.2802 192.048 18.2802C190.468 18.2802 188.584 19.148 188.584 23.2854V23.6332C188.584 26.9289 189.741 28.5984 192.019 28.5984Z" fill="white"/>
<path d="M222.608 14.5323L222.515 19.2628C221.925 19.1818 221.331 19.1319 220.735 19.1132C218.93 19.1132 217.882 19.6228 217.222 20.8158L217.198 20.8454V32.2923H212.295V14.6523H216.316L217.026 16.6541L217.374 16.1793C218.308 14.9428 219.539 14.3149 221.026 14.3149C221.56 14.3218 222.092 14.3948 222.608 14.5323Z" fill="white"/>
<rect x="126.496" y="15.4717" width="4.90955" height="16.7704" fill="white"/>
<path d="M131.407 10.6719C131.409 12.0281 130.311 13.1291 128.955 13.131C127.599 13.133 126.498 12.0351 126.496 10.6789C126.494 9.32264 127.592 8.22165 128.948 8.21973C129.599 8.21835 130.224 8.47603 130.686 8.93601C131.147 9.39598 131.406 10.0205 131.407 10.6719Z" fill="white"/>
<rect x="203.736" y="15.5205" width="4.90958" height="16.7704" fill="white"/>
<path d="M208.645 10.7203C208.63 12.0726 207.524 13.1579 206.172 13.1481C204.819 13.1382 203.729 12.0368 203.734 10.6845C203.738 9.33211 204.835 8.23786 206.188 8.23682C206.843 8.23957 207.47 8.50295 207.931 8.96884C208.392 9.43474 208.649 10.0649 208.645 10.7203Z" fill="white"/>
<rect x="108.525" y="15.4717" width="4.90957" height="16.7704" fill="white"/>
<path d="M113.435 10.6716C113.436 11.6697 112.836 12.5702 111.914 12.9528C110.992 13.3354 109.931 13.1246 109.225 12.4189C108.519 11.7131 108.308 10.6516 108.691 9.72974C109.073 8.80791 109.974 8.20758 110.972 8.20899C111.626 8.2076 112.253 8.46661 112.715 8.92874C113.177 9.39087 113.436 10.018 113.435 10.6716Z" fill="white"/>
<path d="M162.892 28.6526V32.9343C162.612 32.9552 162.31 32.9656 162.005 32.9656C156.864 32.9656 154.038 30.3935 154.038 25.7222V18.2143H151.381V14.6091H154.038V10.9569L158.957 7.51172V14.6091H162.511V18.2143H158.957V25.7222C158.957 27.6752 160.083 28.6682 162.313 28.6682C162.473 28.6682 162.683 28.6682 162.892 28.6526Z" fill="white"/>
<path d="M101.87 13.6072V14.3028H105.43V17.9115H101.87V31.9376H96.9548V17.915H94.2974V14.3063H96.9548V13.6107C96.9548 8.93936 99.7861 6.36719 104.92 6.36719C105.094 6.36719 105.268 6.36719 105.43 6.38284V10.6663H105.217C103.002 10.6663 101.87 11.6541 101.87 13.6072Z" fill="white"/>
<path d="M88.7341 13.6072V14.3028H92.2889V17.9115H88.7341V31.9376H83.8141V17.915H81.1567V14.3063H83.8141V13.6107C83.8141 8.93936 86.6454 6.36719 91.7846 6.36719C91.9585 6.36719 92.1324 6.36719 92.2889 6.38284V10.6663H92.0889C89.8611 10.6663 88.7341 11.6541 88.7341 13.6072Z" fill="white"/>
</svg>
